<?xml version="1.0" encoding="UTF-8" standalone="no"?>
<!-- Created with Inkscape (http://www.inkscape.org/) -->

<svg
   width="133.1718mm"
   height="151.05511mm"
   viewBox="0 0 133.1718 151.05511"
   version="1.1"
   id="svg1"
   xml:space="preserve"
   sodipodi:docname="formal-dresscode.svg"
   inkscape:version="1.3.2 (091e20e, 2023-11-25, custom)"
   xmlns:inkscape="http://www.inkscape.org/namespaces/inkscape"
   xmlns:sodipodi="http://sodipodi.sourceforge.net/DTD/sodipodi-0.dtd"
   xmlns="http://www.w3.org/2000/svg"
   xmlns:svg="http://www.w3.org/2000/svg"><sodipodi:namedview
     id="namedview1"
     pagecolor="#ffffff"
     bordercolor="#000000"
     borderopacity="0.25"
     inkscape:showpageshadow="2"
     inkscape:pageopacity="0.0"
     inkscape:pagecheckerboard="0"
     inkscape:deskcolor="#d1d1d1"
     inkscape:document-units="mm"
     inkscape:zoom="0.53319394"
     inkscape:cx="152.85245"
     inkscape:cy="239.125"
     inkscape:window-width="1920"
     inkscape:window-height="1057"
     inkscape:window-x="-8"
     inkscape:window-y="-8"
     inkscape:window-maximized="1"
     inkscape:current-layer="layer1" /><defs
     id="defs1" /><g
     inkscape:label="Layer 1"
     inkscape:groupmode="layer"
     id="layer1"
     transform="translate(-14.316404,-13.134477)"><path
       d="m 88.44026,160.58199 c -6.022181,1.09485 -9.906,0.87868 -14.322161,2.1172 -4.807214,1.34805 -12.049125,3.20701 -15.878704,-1.74361 -0.652727,-0.84349 -1.227402,-3.44963 -1.731962,-7.19111 -1.577182,-0.1643 -3.741473,-0.38655 -6.7056,-0.68606 -3.467894,-0.35031 -6.502136,0.20584 -8.940271,1.03769 0.787135,-4.27646 1.281112,-11.68585 1.281112,-11.68585 0,0 8.406342,-24.28505 11.021748,-32.50459 0.170657,-0.53605 0.356129,-1.11231 0.553244,-1.72032 C 53.39117,97.994537 53.25782,90.40417 53.25782,90.40417 c 0,0 -9.428162,17.22914 -9.433983,17.34212 0,0 -2.739761,2.73976 -4.483365,12.08034 -1.764506,9.4533 -2.366168,22.10568 -2.366168,22.10568 0,0 -4.732603,8.53096 -5.479786,12.64073 -0.208227,1.14459 -0.276754,2.18837 -0.237331,3.12499 -6.532298,-0.37412 -18.041673,-2.90062 -16.85581,-5.55334 1.183216,-2.64636 7.036593,-3.7674 7.036593,-3.7674 4.658784,-7.65386 15.640844,-31.01658 19.922067,-39.37714 0.525462,-1.02606 0.950119,-1.82642 1.249627,-2.34368 1.886479,-3.25861 1.587765,-15.411718 3.175794,-28.208291 0.767821,-6.18834 3.096683,-12.403138 5.253831,-17.105842 0.215371,-0.469635 0.42836,-0.921808 0.638704,-1.359694 0.829733,-1.727729 1.604169,-3.195108 2.220913,-4.310591 0.287073,-0.519113 0.538427,-0.960173 0.745595,-1.316567 0.06218,-0.107156 0.120121,-0.206111 0.174096,-0.297656 0.282046,-0.478367 0.448204,-0.744009 0.448204,-0.744009 0.0061,-0.07805 0.0085,-0.153193 0.0127,-0.229923 0.02196,-0.394229 0.02222,-0.772318 0,-1.135062 -0.04471,-0.731838 -0.169068,-1.409965 -0.332052,-2.073804 -7.93e-4,-0.0034 -0.0016,-0.0069 -0.0026,-0.01058 -0.05106,-0.207698 -0.105834,-0.414073 -0.163248,-0.620448 -0.0013,-0.0042 -0.0024,-0.0085 -0.0034,-0.0127 -0.05768,-0.207168 -0.11774,-0.414337 -0.178858,-0.622564 -7.94e-4,-0.0024 -0.0013,-0.0048 -0.0021,-0.0071 -0.02831,-0.09604 -0.05715,-0.19341 -0.08572,-0.289983 -0.03175,-0.107156 -0.06377,-0.214842 -0.09552,-0.323056 -0.0021,-0.0071 -0.0042,-0.01402 -0.0061,-0.0209 -0.157162,-0.534458 -0.309827,-1.092463 -0.455083,-1.652057 -0.04524,-0.174889 -0.08996,-0.349514 -0.133615,-0.523875 -0.01508,-0.06032 -0.0299,-0.120385 -0.04471,-0.180446 -0.0013,-0.005 -0.0024,-0.0098 -0.0037,-0.01482 -0.04313,-0.173832 -0.08519,-0.346869 -0.126206,-0.518584 -0.0019,-0.0082 -0.004,-0.01614 -0.0058,-0.02434 -0.02434,-0.1016 -0.04815,-0.202671 -0.0717,-0.303213 -0.0717,-0.305858 -0.1397,-0.605102 -0.203464,-0.894292 -0.02249,-0.102129 -0.04445,-0.202935 -0.06588,-0.302154 -0.0021,-0.0095 -0.0042,-0.01931 -0.0063,-0.02884 -0.03254,-0.151342 -0.06376,-0.299244 -0.09366,-0.443177 -0.0024,-0.01111 -0.0045,-0.0217 -0.0069,-0.03281 -0.06112,-0.29501 -0.116152,-0.572558 -0.164307,-0.827087 -5.29e-4,-0.0026 -0.0011,-0.0053 -0.0016,-0.0079 -0.02275,-0.121179 -0.04392,-0.236273 -0.0635,-0.346075 -0.0026,-0.01455 -0.0053,-0.02884 -0.0077,-0.04313 -0.0029,-0.01614 -0.0058,-0.03307 -0.0087,-0.04895 -0.01508,-0.08705 -0.0291,-0.169068 -0.0418,-0.24765 -0.0021,-0.0127 -0.004,-0.02487 -0.0061,-0.03757 -0.01508,-0.09393 -0.0291,-0.182827 -0.04048,-0.262995 -2.65e-4,-0.0013 -2.65e-4,-0.0026 -5.29e-4,-0.004 -0.01138,-0.07911 -0.02037,-0.149754 -0.02805,-0.214313 -0.0011,-0.0082 -0.0021,-0.0172 -0.0029,-0.02514 -0.0069,-0.06032 -0.01164,-0.112448 -0.01482,-0.158221 -5.29e-4,-0.0085 -0.0011,-0.01693 -0.0016,-0.02487 -0.0024,-0.0426 -0.0032,-0.07832 -0.0019,-0.105568 2.65e-4,-0.0042 7.94e-4,-0.0071 0.0011,-0.01111 0.0021,-0.02567 0.0058,-0.04524 0.01217,-0.05239 l -0.405341,-0.226484 -0.02037,-0.01138 -1.116542,-0.623623 -4.98475,-2.784475 c 0.326375,-1.761373 0.662131,-3.083232 0.984923,-3.558423 2.330185,-3.431381 4.995598,-2.042848 9.527381,-3.175794 0.343429,-0.08573 0.563034,-0.471752 0.695854,-1.033198 0.891382,0.126736 2.138098,0.25744 3.351477,0.223573 1.072621,-0.0299 2.12778,-0.245004 2.94005,-0.461169 0.08652,0.266965 0.189707,0.484717 0.313532,0.616744 0.420687,0.448469 1.247246,0.524669 2.247635,0.540279 0.637911,0.0098 1.345671,-0.0037 2.066131,0.03704 1.913202,0.10795 3.907367,0.607484 4.867011,3.006725 0.156369,0.391054 0.360891,0.995892 0.604044,1.752865 l -2.588419,3.227652 -0.366713,0.4572 c 0,0 0,0 0,0 0.05212,0.08811 0.100807,0.181239 0.147902,0.276489 0.01297,0.02619 0.02567,0.05239 0.03836,0.07911 0.0426,0.09049 0.08361,0.183357 0.121708,0.27993 0.01402,0.03545 0.02646,0.07302 0.03995,0.109273 0.05636,0.153194 0.106098,0.314589 0.150813,0.4826 0.01905,0.07144 0.03942,0.140758 0.05583,0.214841 0.01614,0.07223 0.02857,0.148696 0.0426,0.223309 0.01773,0.09498 0.03466,0.190764 0.04868,0.289719 0.01005,0.07117 0.01879,0.144197 0.02699,0.217752 0.01296,0.116152 0.02275,0.235743 0.03043,0.357187 0.004,0.06324 0.009,0.125677 0.01164,0.1905 0.0077,0.189971 0.01085,0.38444 0.0056,0.586846 v 0 c 0,0 0,2.65e-4 0,2.65e-4 -0.0032,0.12012 -0.0127,0.252677 -0.02593,0.392377 0,7.93e-4 0,0.0013 -2.65e-4,0.0021 -0.0013,0.01482 -0.0024,0.0291 -0.004,0.04419 -0.0032,0.03148 -0.0087,0.068 -0.01244,0.100806 -0.0087,0.07805 -0.01879,0.158221 -0.0299,0.241565 -0.0029,0.02223 -0.0048,0.04207 -0.0079,0.06456 -0.0011,0.0082 -0.0019,0.01535 -0.0029,0.02355 -0.0034,0.02461 -0.0069,0.04895 -0.01058,0.07382 -0.0042,0.02831 -0.01005,0.06006 -0.01429,0.0889 -0.01614,0.104775 -0.03334,0.211931 -0.05212,0.32332 -0.0034,0.02064 -0.0061,0.03916 -0.0098,0.06006 -0.005,0.0291 -0.01032,0.05874 -0.01561,0.08837 -0.0032,0.01746 -0.0069,0.03678 -0.01005,0.0545 -0.02117,0.119062 -0.04418,0.242094 -0.068,0.367241 -0.0063,0.03334 -0.01164,0.06403 -0.01799,0.09763 -0.0053,0.02725 -0.01085,0.0553 -0.01614,0.08281 -0.0011,0.005 -0.0021,0.01032 -0.0029,0.01508 -0.03016,0.154516 -0.06218,0.31406 -0.09499,0.47625 -0.0058,0.02805 -0.01058,0.05397 -0.0164,0.08229 -0.0021,0.01058 -0.0045,0.0217 -0.0066,0.03281 -0.0016,0.0074 -0.0032,0.01482 -0.0045,0.02196 -0.0013,0.0061 -0.0026,0.0127 -0.004,0.01879 -0.0598,0.292365 -0.123296,0.5969 -0.188384,0.909373 -0.02593,0.12409 -0.05133,0.246063 -0.07752,0.372798 -0.0042,0.02011 -0.0082,0.04022 -0.01244,0.06032 -0.04551,0.220133 -0.09155,0.4445 -0.137319,0.671248 -0.0069,0.03387 -0.01376,0.06747 -0.02037,0.1016 -0.01032,0.05159 -0.02037,0.104775 -0.03069,0.156898 -0.0344,0.173037 -0.06879,0.346338 -0.102394,0.522022 -0.0058,0.03043 -0.01164,0.06112 -0.01746,0.09181 -0.0209,0.109538 -0.04048,0.220398 -0.06085,0.330729 -0.02355,0.127 -0.04736,0.253207 -0.07011,0.381265 -0.0029,0.01614 -0.0056,0.03228 -0.0085,0.04842 -0.0172,0.0979 -0.03254,0.196585 -0.04921,0.29501 -0.02487,0.147902 -0.0508,0.295275 -0.07408,0.443442 -0.0011,0.0066 -0.0021,0.01349 -0.0032,0.02011 -0.03784,0.242094 -0.07276,0.484188 -0.105569,0.726017 -0.004,0.02884 -0.0079,0.05768 -0.01191,0.08652 -0.01561,0.118269 -0.02805,0.23548 -0.0418,0.353219 -0.01349,0.114036 -0.02858,0.228336 -0.04048,0.341577 -0.0037,0.03598 -0.0077,0.07197 -0.01138,0.10795 -0.0016,0.01482 -0.0024,0.02937 -0.0037,0.04419 -0.02117,0.213254 -0.03995,0.42545 -0.0545,0.635529 -0.0024,0.03493 -0.0045,0.06959 -0.0069,0.104246 -0.01482,0.227806 -0.02566,0.454025 -0.03149,0.676539 -2.65e-4,0.01508 -5.29e-4,0.03016 -7.94e-4,0.04498 0,0.009 -2.65e-4,0.01799 -5.29e-4,0.02725 -0.0048,0.233362 -0.0056,0.463814 0.0011,0.689768 0,0 0,0 0,0 0.0011,0.03942 0.0045,0.07699 0.0063,0.115888 l 0.01773,-2.65e-4 c 0.0418,0.139436 0.08758,0.282575 0.135731,0.427567 0.142875,0.431535 0.311944,0.888471 0.502709,1.37795 0.01693,0.04313 0.0344,0.08731 0.05159,0.130969 0.192352,0.490008 0.404547,1.012295 0.631295,1.572683 0.06006,0.148696 0.12118,0.299508 0.183092,0.454025 0.05556,0.137848 0.111654,0.277812 0.168275,0.420158 1.03214,2.588684 2.273035,5.945452 3.253846,10.565342 2.8956,13.637154 -1.569773,34.715188 -0.46699,42.592628 0.653786,4.67016 14.882548,39.91504 14.882548,39.91504 0,0 5.728759,1.61899 8.468784,4.7326 1.423987,1.61793 -3.985684,4.35796 -9.465469,5.35411 z"
       fill="#000000"
       id="path1"
       style="stroke-width:0.264583" /><path
       d="m 141.04293,120.90377 c -1.9894,-9.21465 -7.53004,-46.18117 -8.81433,-54.17026 0.21193,-0.17886 0.33152,-0.31459 0.33152,-0.39344 0,-0.81492 -2.96333,-13.6316 -3.03741,-15.11353 -0.0741,-1.48167 0.0741,-4.81542 0.0741,-4.81542 l 2.74108,8.2976 2.88925,24.67055 c 0,0 0.20373,1.9632 0.64823,2.35214 0,0 1.11125,0.889 4.8895,0.55563 3.77825,-0.33338 4.16719,-1.3335 4.22275,-1.778 0.0556,-0.4445 -0.12965,-2.09286 -0.12965,-2.09286 0,0 -0.59266,-13.92793 -2.29658,-25.11504 -1.70392,-11.18685 -5.25992,-30.078629 -5.25992,-30.078629 0,0 0.508,-1.342495 -0.14816,-1.777999 -3.3028,-2.191809 -7.17153,-3.717396 -10.03194,-4.657725 -2.43285,-0.799836 -4.13703,-1.176602 -4.13703,-1.176602 0,0 -0.4445,-1.32715 -0.96308,-1.919817 -0.41672,-0.47625 -5.03793,1.389062 -5.03793,1.389062 0,0 -3.40757,-1.944952 -3.85207,-1.944952 -0.4445,0 -1.98173,2.531004 -1.98173,2.531004 -1.62851,0.262202 -3.22474,0.62283 -4.70932,1.021027 -4.49236,1.205442 -7.958928,2.756694 -8.181707,2.979473 -0.296334,0.296334 -0.22225,2.00025 -0.22225,2.00025 0,0 -2.148417,4.22275 -4.519348,10.668265 -2.370667,6.445514 -4.519083,15.113533 -3.926417,19.484443 0.592667,4.37092 4.297098,16.37295 4.297098,16.37295 0,0 0.648229,2.25954 1.259417,2.48179 0.611187,0.22225 0.4445,-2.94481 1.500187,-4.66725 0.582613,-0.95038 1.164167,-1.52744 1.569244,-1.85473 0.157956,0.43074 0.337873,0.88847 0.538163,1.35176 l -1.607344,9.50436 c 0,0 0.111125,1.22238 0.4445,2.88925 0.333375,1.66688 0.114829,21.23361 4.667247,43.56232 4.66752,22.89228 9.00139,40.11719 9.00139,40.11719 l 2.77812,2.55587 c 3.60548,-0.27463 7.00723,-0.92181 10.11264,-2.11137 0,0 0.11113,-21.11428 -5.22314,-40.45056 l -2.11137,-32.78267 c 0,0 5.66764,24.44829 8.11239,34.89431 2.35426,10.05893 10.00151,39.33931 10.00151,39.33931 2.3249,0.91969 4.72705,1.32768 7.22339,1.11125 2.21748,-1.3298 3.9968,-2.95884 5.33427,-4.8895 0,-2.7e-4 -4.33388,-28.56019 -6.44525,-38.33945 z"
       fill="#000000"
       id="path1-2"
       style="stroke-width:0.264583"
       sodipodi:nodetypes="scscccccscccccccscsccsccscsccccsccccccccccss" /><path
       style="fill:#ffffff;fill-opacity:1;stroke:#000000;stroke-width:0;stroke-linejoin:round;stroke-miterlimit:4.4"
       d="m 111.14953,15.665482 c 0.30479,7.621826 1.38787,12.892044 2.65967,18.558491 2.55596,-5.302972 5.15197,-12.469934 9.17514,-18.613788 l -6.00101,-0.530755 z"
       id="path3"
       sodipodi:nodetypes="ccccc" /><path
       style="fill:#d7d7d7;fill-opacity:1;stroke:#000000;stroke-width:0;stroke-linejoin:round;stroke-miterlimit:4.4"
       d="m 113.13126,13.134478 c 0.77315,0.270585 0.92865,0.439571 3.85207,1.95572 -0.61111,0.872762 -0.95338,1.590342 -2.20399,2.832256 -1.50201,-0.868764 -2.82288,-1.637149 -3.89297,-2.266564 0.67831,-0.97447 1.42737,-1.799478 2.24489,-2.521412 z"
       id="path4"
       sodipodi:nodetypes="ccccc" /><path
       style="fill:#dddddd;fill-opacity:1;stroke:#000000;stroke-width:0;stroke-linejoin:round;stroke-miterlimit:4.4"
       d="m 122.02126,13.560527 c 0.46128,0.610562 0.72184,1.288663 0.96308,1.973269 -1.38103,0.842754 -3.29881,1.808107 -5.42063,2.820065 l -0.58038,-3.365598 c 2.2007,-1.201897 5.46851,-1.676798 5.03793,-1.427736 z"
       id="path5"
       sodipodi:nodetypes="ccccc" /><ellipse
       style="fill:#000000;fill-opacity:1;stroke:#000000;stroke-width:0;stroke-linejoin:round;stroke-miterlimit:4.4"
       id="path6"
       cx="115.74456"
       cy="19.561464"
       rx="0.62059641"
       ry="0.68219686" /><ellipse
       style="fill:#000000;fill-opacity:1;stroke:#000000;stroke-width:0;stroke-linejoin:round;stroke-miterlimit:4.4"
       id="ellipse6"
       cx="115.12397"
       cy="23.969505"
       rx="0.62059641"
       ry="0.68219686" /><ellipse
       style="fill:#000000;fill-opacity:1;stroke:#000000;stroke-width:0;stroke-linejoin:round;stroke-miterlimit:4.4"
       id="ellipse7"
       cx="114.50338"
       cy="28.921001"
       rx="0.62059641"
       ry="0.68219686" /></g></svg>
