<?xml version="1.0" encoding="UTF-8" standalone="no"?>
<!-- Created with Inkscape (http://www.inkscape.org/) -->

<svg
   width="149.04877mm"
   height="176.88205mm"
   viewBox="0 0 149.04877 176.88205"
   version="1.1"
   id="svg1"
   xml:space="preserve"
   inkscape:version="1.3.2 (091e20e, 2023-11-25, custom)"
   sodipodi:docname="baile.svg"
   xmlns:inkscape="http://www.inkscape.org/namespaces/inkscape"
   xmlns:sodipodi="http://sodipodi.sourceforge.net/DTD/sodipodi-0.dtd"
   xmlns="http://www.w3.org/2000/svg"
   xmlns:svg="http://www.w3.org/2000/svg"><sodipodi:namedview
     id="namedview1"
     pagecolor="#ffffff"
     bordercolor="#000000"
     borderopacity="0.25"
     inkscape:showpageshadow="2"
     inkscape:pageopacity="0.0"
     inkscape:pagecheckerboard="0"
     inkscape:deskcolor="#d1d1d1"
     inkscape:document-units="mm"
     inkscape:zoom="0.34174693"
     inkscape:cx="134.60253"
     inkscape:cy="381.86152"
     inkscape:window-width="1920"
     inkscape:window-height="1057"
     inkscape:window-x="-8"
     inkscape:window-y="-8"
     inkscape:window-maximized="1"
     inkscape:current-layer="layer2" /><defs
     id="defs1" /><g
     inkscape:label="Capa 1"
     inkscape:groupmode="layer"
     id="layer1"
     style="display:none"
     transform="translate(-13.678637,-33.625049)"><path
       id="rect3"
       style="fill:none;fill-opacity:1;stroke:#000000;stroke-width:1;stroke-miterlimit:2;stroke-dasharray:none;stroke-opacity:1;paint-order:markers fill stroke"
       d="m 93.274107,130.43807 6.862743,0.99165 c 0,0 1.0303,4.7143 1.53821,7.07302 1.09052,5.06438 1.74924,10.23862 3.24047,15.19981 2.08769,6.94557 5.193,13.54506 7.94751,20.25416 2.73213,6.65458 6.13717,13.04127 8.50784,19.83302 1.5925,4.56232 3.81685,13.98531 3.81685,13.98531 0,0 0.83923,5.54745 -0.68292,7.57481 -1.35787,1.80856 -6.31896,2.4704 -6.31896,2.4704 0,0 -7.54975,-2.47708 -11.38855,-2.08187 -2.76134,0.28428 -7.715124,3.13519 -7.715124,3.13519 0,0 -9.49772,-0.95431 -14.168185,-1.89844 -4.730186,-0.95619 -13.969485,-3.80186 -13.969485,-3.80186 0,0 -2.874778,-2.968 -4.78264,-3.28386 -1.419709,-0.23504 -4.156582,1.16627 -4.156582,1.16627 l -8.7893,-3.86685 c 0,0 -2.20038,-1.06914 -2.336083,-2.10952 -0.149422,-1.14557 1.890377,-2.90487 1.890377,-2.90487 l 10.186004,-7.49871 c 0,0 2.29095,-1.2662 3.080123,-2.26752 1.327933,-1.68489 2.498736,-5.93101 2.498736,-5.93101 l 4.255722,-9.75102 3.55187,-10.87446 c 0,0 2.953183,-7.95495 4.647261,-11.8424 1.163257,-2.66936 3.783672,-7.87349 3.783672,-7.87349 0,0 2.78695,-6.64847 4.549333,-9.7836 1.161772,-2.0667 3.951108,-5.91416 3.951108,-5.91416 z"
       sodipodi:nodetypes="ccaaaacacacacaccaccacccacac" /><path
       id="rect4"
       style="fill:none;fill-opacity:1;stroke:#000000;stroke-miterlimit:2;stroke-opacity:1;paint-order:markers fill stroke"
       d="m 90.074967,100.81786 c 0,0 -2.924203,0.64743 -4.029637,-0.1166 -1.386953,-0.958604 -1.738136,-3.002073 -1.923855,-4.677803 -0.200548,-1.809531 -0.353861,-4.083849 0.920976,-5.383624 0.739073,-0.753531 2.203407,-0.05408 3.110171,-0.594283 1.005586,-0.599074 1.184755,-2.176389 2.221722,-2.719336 1.520218,-0.795974 3.473735,-0.847332 5.131961,-0.405831 1.029752,0.27417 1.957787,0.984468 2.639691,1.803349 0.838082,1.006433 1.634176,2.282878 1.592434,3.591903 -0.02039,0.639364 -0.887983,1.701265 -0.887983,1.701265 l 0.06933,1.314212 c 0,0 1.979953,0.843561 1.801533,1.63453 -0.11377,0.504328 -1.48485,0.448127 -1.48485,0.448127 l -0.342668,5.494551 c 0,0 -2.778791,-0.97642 -3.720389,-0.16745 -0.850411,0.73062 -0.356732,3.34453 -0.356732,3.34453 l 2.604456,3.09344 c 0,0 2.548333,2.4226 3.679793,3.76356 0.69284,0.82113 1.44407,1.63269 1.8926,2.60897 0.4813,1.04759 0.85924,2.21313 0.80114,3.36453 -0.0577,1.1436 -1.12805,3.24466 -1.12805,3.24466 0,0 -0.96446,1.73124 -0.73524,2.60334 0.18806,0.71553 1.57551,1.56327 1.57551,1.56327 l 2.86332,1.76501 2.30243,0.64387 2.26329,1.0355 3.81916,0.11745 c 0,0 2.22387,2.49346 1.6687,3.74091 -0.37657,0.84615 -2.64282,0.85758 -2.64282,0.85758 0,0 -1.45735,-1.68245 -2.46019,-2.04517 -1.66463,-0.60208 -5.31049,-0.003 -5.31049,-0.003 l -4.36933,-1.50838 -8.64146,-0.55171 -5.259552,-10.47219 -2.052509,7.04596 -2.721428,4.70858 -2.7696,4.37945 -3.218498,4.83978 c 0,0 -1.130511,3.51935 -2.349356,4.83128 -0.720557,0.77558 -2.746403,1.59495 -2.746403,1.59495 0,0 -2.248742,0.95415 -3.038859,0.31182 -0.687142,-0.55862 -0.274107,-2.64251 -0.274107,-2.64251 0,0 2.611657,-1.15428 3.520815,-2.19689 1.493131,-1.71231 2.78736,-6.21961 2.78736,-6.21961 l 3.139987,-6.1054 3.132769,-5.83745 4.542661,-12.86313 c 0,0 0.467383,-2.04035 1.024654,-2.90145 0.584711,-0.90349 1.828775,-1.27904 2.336812,-2.22777 0.569842,-1.06415 0.824749,-3.0117 0.936622,-4.35613 0.07028,-0.84458 -0.167723,-0.95405 0.01023,-1.37726 0.01346,-0.032 0.07388,-0.0734 0.07388,-0.0734 z"
       sodipodi:nodetypes="caaaaaaaaccaccaccaaacacccccacaccccccccacacaccccassac" /><path
       id="rect5"
       style="fill:none;fill-opacity:1;stroke:#000000;stroke-miterlimit:2;stroke-opacity:1;paint-order:markers fill stroke"
       d="m 129.7664,147.94623 15.46331,2.50756 -0.9191,6.85735 -0.21869,6.73011 -1.91273,23.39868 c 0,0 2.61287,10.86673 1.85933,16.27466 -0.22997,1.65046 -1.89565,2.9562 -1.90363,4.62258 -0.006,1.27545 1.42311,3.55193 1.42311,3.55193 l 0.40988,4.92082 -3.72227,0.45351 c 0,0 -0.96115,-2.50577 -1.94801,-2.30745 -1.05925,0.21287 -0.97175,3.09219 -0.97175,3.09219 l -5.60996,0.62441 c 0,0 -4.65563,0.77863 -5.31722,-0.89236 -0.51276,-1.29506 2.53063,-3.32517 2.53063,-3.32517 0,0 -2.28853,-0.60274 -2.29736,-1.52114 -0.0123,-1.27898 1.1398,-0.98492 3.15808,-2.17947 1.36619,-0.80861 3.701,-1.60006 4.18558,-2.68144 0.87563,-1.95405 -0.9188,-6.35777 -0.9188,-6.35777 l -3.24088,-8.24194 -4.57031,-10.12784 c 0,0 -1.7659,-2.45596 -1.94416,-3.89651 -0.15552,-1.25671 0.81629,-3.71016 0.81629,-3.71016 l 1.05938,-8.15789 2.4214,-9.79273 z"
       sodipodi:nodetypes="cccccaacccaccacasscccacccc" /><path
       id="rect6"
       style="fill:none;fill-opacity:1;stroke:#000000;stroke-miterlimit:2;stroke-opacity:1;paint-order:markers fill stroke"
       d="m 132.13604,74.113309 c 1.68288,-0.400809 3.67366,0.249341 5.01261,1.344762 0.87934,0.719404 1.17613,1.968248 1.51778,3.051788 0.46564,1.476758 0.67145,3.045262 0.69128,4.593565 0.0255,1.993845 -0.73841,5.936277 -0.73841,5.936277 0,0 2.19483,4.942382 3.75864,7.125364 0.5412,0.755477 1.51783,1.185411 1.91633,2.024959 0.47356,0.997693 0.42455,3.285826 0.42455,3.285826 l -0.11941,7.61527 -0.51666,9.86295 c 0,0 -0.51053,3.92553 -0.3907,5.88928 0.0718,1.17742 0.66184,3.47639 0.66184,3.47639 l 2.9399,7.7078 3.40822,8.14288 3.51318,7.53717 -25.49356,-3.97031 0.60244,-8.42483 c 0,0 0.45835,-2.80974 0.41312,-4.22361 -0.0198,-0.61866 -0.29853,-1.83278 -0.29853,-1.83278 l -0.30715,-4.08451 -10.05269,2.7366 c 0,0 -0.5521,-0.5496 -0.89925,-0.52897 -0.612,0.0364 -1.46373,1.11369 -1.46373,1.11369 l -2.00048,-2.49041 c 0,0 0.34602,-1.27425 0.77209,-1.74758 0.33005,-0.36667 1.28364,-0.7367 1.28364,-0.7367 0,0 0.008,-1.85651 0.56084,-2.51341 0.76747,-0.91236 3.30588,-1.36522 3.30588,-1.36522 l 5.57773,-2.49764 c 0,0 2.54076,-0.76981 3.10924,-1.82947 0.33284,-0.6204 -0.11429,-2.10904 -0.11429,-2.10904 l -0.71651,-7.21999 c 0,0 0.12187,-1.82246 0.31963,-2.71044 0.19481,-0.87469 0.84794,-2.55111 0.84794,-2.55111 0,0 0.80085,-2.55704 1.32357,-3.78829 0.5123,-1.206737 1.77006,-3.51211 1.77006,-3.51211 0,0 0.64514,-3.868016 -0.74473,-4.342178 -0.50739,-0.173098 -1.18401,1.088481 -1.18401,1.088481 0,0 -1.1127,0.389016 -1.50885,0.07805 -0.41828,-0.328338 -0.29831,-1.567137 -0.29831,-1.567137 0,0 -0.63136,-0.765113 -0.6988,-1.232565 -0.0631,-0.437484 0.30125,-1.291368 0.30125,-1.291368 l -0.41023,-1.002989 c 0,0 -1.68717,0.386192 -1.99487,-0.207324 -0.24621,-0.474919 0.78439,-1.400092 0.78439,-1.400092 l 0.20895,-2.958506 -0.20787,-3.649135 c 0,0 0.0141,-1.849987 0.44315,-2.627809 1.01321,-1.836877 2.65008,-3.709547 4.69079,-4.195579 z"
       sodipodi:nodetypes="aaaacaacccaccccccacccaccacaccaccacacacacaccacccaa" /><ellipse
       style="fill:none;fill-opacity:1;stroke:#000000;stroke-width:0.485559;stroke-miterlimit:2;stroke-dasharray:none;stroke-opacity:1;paint-order:markers fill stroke"
       id="path6"
       cx="88.655342"
       cy="99.650948"
       rx="0.73529017"
       ry="0.68217129" /><ellipse
       style="fill:none;fill-opacity:1;stroke:#000000;stroke-width:0.485559;stroke-miterlimit:2;stroke-dasharray:none;stroke-opacity:1;paint-order:markers fill stroke"
       id="path6-8"
       cx="88.290565"
       cy="97.233284"
       rx="0.73529017"
       ry="0.68217129" /><ellipse
       style="fill:none;fill-opacity:1;stroke:#000000;stroke-width:0.485559;stroke-miterlimit:2;stroke-dasharray:none;stroke-opacity:1;paint-order:markers fill stroke"
       id="path6-1"
       cx="88.025986"
       cy="94.587448"
       rx="0.73529017"
       ry="0.68217129" /><ellipse
       style="fill:none;fill-opacity:1;stroke:#000000;stroke-width:0.485559;stroke-miterlimit:2;stroke-dasharray:none;stroke-opacity:1;paint-order:markers fill stroke"
       id="path6-84"
       cx="87.761398"
       cy="91.941612"
       rx="0.73529017"
       ry="0.68217129" /></g><g
     inkscape:groupmode="layer"
     id="layer2"
     inkscape:label="Capa 2"
     style="display:inline"
     transform="translate(-13.678637,-33.625049)"><path
       d="m 96.326101,33.825023 c -1.541427,-0.06949 -3.071721,0.525044 -4.230367,1.799719 -2.317399,2.549291 -2.245167,6.82508 0.161557,9.586975 l 2.100038,2.409622 8.492541,-9.058211 -2.22641,-2.554533 c -1.203544,-1.380997 -2.756175,-2.114196 -4.297629,-2.183572 z"
       style="display:inline;fill:#000000;fill-opacity:1;stroke:#000000;stroke-width:0.389107;stroke-miterlimit:2;stroke-opacity:1;paint-order:markers fill stroke"
       id="path15-9-5"
       inkscape:transform-center-x="-124.35461"
       inkscape:transform-center-y="140.09906" /><path
       d="m 102.85015,38.563128 8.6908,9.971743 2.47565,-2.640518 c 2.35218,-2.508842 2.33529,-6.781704 -0.039,-9.580367 -2.37314,-2.798627 -6.17727,-3.031932 -8.52945,-0.52306 z"
       style="display:inline;fill:#000000;fill-opacity:1;stroke:#000000;stroke-width:0.389107;stroke-miterlimit:2;stroke-opacity:1;paint-order:markers fill stroke"
       id="path17-4-1"
       inkscape:transform-center-x="-137.0376"
       inkscape:transform-center-y="140.67207" /><path
       d="m 102.85015,38.563128 -8.492509,9.058211 8.690699,9.971759 8.49261,-9.058227 z"
       style="display:inline;fill:#000000;fill-opacity:1;stroke:#000000;stroke-width:0.389107;stroke-miterlimit:2;stroke-opacity:1;paint-order:markers fill stroke"
       id="path16-7-0"
       inkscape:transform-center-x="-130.67696"
       inkscape:transform-center-y="147.45671" /><path
       id="rect12"
       style="display:inline;fill:none;stroke:#000000;stroke-width:1.48664;stroke-miterlimit:2;stroke-opacity:1;paint-order:markers fill stroke"
       d="m 85.11042,93.427759 c 0,0 2.467782,1.150828 3.304681,2.352099 0.610053,0.875668 0.766811,2.124011 1.047117,3.24625 0.544756,2.181072 1.219433,6.720302 1.219433,6.720302 l 2.201186,11.05972 3.595184,16.1426 -7.107547,-16.17796 -1.9313,-9.23783 z"
       sodipodi:nodetypes="caacccccc" /><path
       id="rect12-7"
       style="display:inline;fill:none;stroke:#000000;stroke-width:1.92783;stroke-miterlimit:2;stroke-opacity:1;paint-order:markers fill stroke"
       d="m 66.875717,103.67235 c 0,0 0.78572,0.53624 1.074087,-2.25781 0.278032,-2.693704 1.52964,-5.473007 0.127054,-6.944564 -1.744742,-1.830538 -3.932841,0.963823 -5.908764,1.404478 -3.132955,0.698687 -9.427174,1.964826 -9.427174,1.964826 -8.863273,-3.224624 -21.687622,-9.847529 -21.687622,-9.847529 0,0 12.552767,10.564883 20.073813,13.443999 4.951789,1.89559 12.528526,-1.977712 15.748606,2.23664 z"
       sodipodi:nodetypes="cssaccacc" /><path
       id="rect14"
       style="display:inline;fill:none;stroke:#000000;stroke-width:1.6707;stroke-miterlimit:2;stroke-opacity:1;paint-order:markers fill stroke"
       d="m 70.383358,124.39734 11.759837,0.41133 c 0,0 2.739916,5.26784 3.438341,8.13008 0.639548,2.62109 0.454347,5.38125 0.638374,8.0752 0.230208,3.36896 0.582593,10.11396 0.582593,10.11396 l -0.304238,7.41221 5.719704,18.44114 6.70543,18.25084 c 0,0 1.966031,4.06102 0.875384,5.60631 -1.418681,2.01007 -5.110626,0.15971 -7.252605,1.37006 -2.852797,1.61202 -3.36161,6.56415 -6.546896,7.33292 -4.35492,1.05106 -8.060604,-4.70304 -12.538501,-4.83906 -4.918341,-0.1494 -9.170263,4.93287 -14.068992,4.46934 -4.622463,-0.43737 -7.910699,-4.97775 -12.248958,-6.63242 -7.571914,-2.88804 -17.167729,-0.74851 -23.657838,-5.60166 -2.82605,-2.11326 -6.138732,-5.77597 -5.252252,-9.1916 2.619963,-10.09479 11.646712,-13.89894 26.774568,-16.18774 l 13.960036,-16.12197 4.299437,-9.06165 c 0,0 0.07751,-5.07718 0.351706,-7.59785 0.284415,-2.61514 0.235359,-5.37925 1.338654,-7.77998 1.180533,-2.56886 5.426091,-6.59937 5.426091,-6.59937 z"
       sodipodi:nodetypes="ccaaccccaaaaaaaacccaacc" /><path
       id="path14"
       style="display:inline;fill:none;fill-opacity:1;stroke:#000000;stroke-width:1.30956;stroke-miterlimit:2;stroke-opacity:1;paint-order:markers fill stroke"
       d="m 99.142986,137.95025 c -0.884114,2.04975 -2.365955,5.24999 -3.309852,4.87016 -0.943898,-0.37982 -0.992366,-4.19589 -0.108093,-6.24565 0.88408,-2.04978 2.365951,-3.40356 3.309805,-3.02371 0.943897,0.37982 0.992394,2.34937 0.10849,4.3992 z"
       sodipodi:nodetypes="sssss" /><path
       id="path14-2"
       style="display:inline;fill:none;fill-opacity:1;stroke:#000000;stroke-width:1.30956;stroke-miterlimit:2;stroke-opacity:1;paint-order:markers fill stroke"
       d="M 25.569045,86.214164 C 23.629684,85.10871 20.61305,83.281854 21.09499,82.38578 c 0.481947,-0.896058 4.27992,-0.522002 6.21929,0.583454 1.939351,1.105451 3.120852,2.728006 2.638934,3.624068 -0.481927,0.896062 -2.444789,0.726322 -4.384168,-0.379142 z"
       sodipodi:nodetypes="sssss" /><path
       id="path14-4"
       style="display:inline;fill:none;fill-opacity:1;stroke:#000000;stroke-width:1.30956;stroke-miterlimit:2;stroke-opacity:1;paint-order:markers fill stroke"
       d="m 157.88296,149.44284 c 1.00331,1.98847 2.67102,5.08617 3.59004,4.64442 0.91899,-0.44169 0.74126,-4.25571 -0.26199,-6.24417 -1.00332,-1.98843 -2.56167,-3.24225 -3.48062,-2.8005 -0.91904,0.44171 -0.8507,2.41183 0.15257,4.40025 z"
       sodipodi:nodetypes="sssss" /><path
       id="rect15"
       style="display:inline;fill:none;stroke:#000000;stroke-width:1.4859;stroke-miterlimit:2;stroke-opacity:1;paint-order:markers fill stroke"
       d="m 74.696972,89.934172 c 0,0 0.863493,0.431314 1.334375,0.452279 0.641721,0.02723 1.86947,-0.452279 1.86947,-0.452279 l 0.735784,1.99959 6.562362,1.649369 -1.56172,0.477289 -2.057533,6.0108 -5.018108,6.53535 -5.67729,-7.246047 -1.029987,-6.446284 -2.245723,0.544051 6.486372,-1.459888 z"
       sodipodi:nodetypes="caccccccccccc" /><path
       id="rect16"
       style="display:inline;fill:none;stroke:#000000;stroke-width:1.74216;stroke-miterlimit:2;stroke-opacity:1;paint-order:markers fill stroke"
       d="m 68.138459,92.838291 2.763265,6.199097 c 0,0 2.478854,7.800702 5.798508,7.821112 2.734989,0.017 4.861683,-6.38445 4.861683,-6.38445 l 2.830551,-6.343561 c 0,0 0.479169,6.688221 0.889228,10.015491 0.241945,1.96223 1.303021,3.9183 0.925625,5.8605 -0.223605,1.15009 -1.316368,1.97516 -1.813683,3.04225 -0.596474,1.27998 -1.385724,3.99266 -1.385724,3.99266 l -0.7559,7.26156 -11.638668,-0.0646 -0.470974,-5.84036 c 0,0 -0.965933,-2.247 -1.468559,-3.36238 -0.697792,-1.54843 -1.91072,-2.94895 -2.147701,-4.62214 -0.256658,-1.81217 0.649608,-3.60668 0.848629,-5.42562 0.441471,-4.03481 0.76372,-12.149574 0.76372,-12.149574 z"
       sodipodi:nodetypes="ccaccaaaccccaaac" /><path
       id="path18"
       style="display:inline;fill:none;stroke:#000000;stroke-width:1.55561;stroke-miterlimit:2;stroke-opacity:1;paint-order:markers fill stroke"
       d="m 83.863579,79.776911 c 0,5.046192 -3.822502,9.190853 -7.670461,9.190853 -3.847958,0 -6.967344,-4.090726 -6.967344,-9.136951 0,-1.377994 0.633948,-1.327929 1.050489,-2.499605 0.321788,-0.905174 3.462052,-0.61647 3.932995,-1.49319 1.151724,-2.144071 2.941618,-3.46431 4.926973,-3.46431 2.134245,0 1.667029,0.991996 2.273985,2.466138 0.255838,0.621335 1.637582,0.850155 1.975989,1.898295 0.306336,0.948627 0.477374,1.971083 0.477374,3.03877 z"
       sodipodi:nodetypes="sssssssss" /><path
       id="path19"
       style="display:inline;fill:none;stroke:#000000;stroke-width:1.74216;stroke-miterlimit:2;stroke-opacity:1;paint-order:markers fill stroke"
       d="m 85.529558,73.832597 c 0,2.155611 -0.779482,7.271649 -1.547385,7.559932 -0.45041,0.169137 0.475071,1.278829 0.252091,-0.109361 -0.174826,-1.087656 -1.441821,-4.681772 -2.043684,-4.973164 -0.994993,-0.481723 -1.526762,-3.945731 -3.022112,-3.945731 -2.276032,0 -4.21552,3.920893 -6.417105,4.621492 -0.925341,0.294448 -2.09745,0.764706 -2.895297,1.702806 -0.665225,0.782151 -0.806671,3.186849 -1.342018,2.766327 -1.001761,-0.786896 -0.710033,-5.923042 -0.710033,-7.55755 0,-0.975566 0.517815,-2.050548 0.736374,-2.950729 0.219702,-0.904902 1.223316,-1.443102 1.545946,-2.243769 0.683771,-1.696936 1.441076,-4.274014 2.510363,-5.95435 1.036082,-1.628174 2.365073,-2.386767 4.203875,-2.386767 2.241912,0 3.924109,1.21738 4.79554,3.31594 0.483566,1.164535 0.300831,3.00285 0.818681,4.095814 0.213263,0.450201 1.423498,1.303511 1.628567,1.779473 0.610015,1.415885 1.486197,2.610367 1.486197,4.279775 z"
       sodipodi:nodetypes="ssssssssssssssssss" /><ellipse
       style="display:inline;fill:#000000;fill-opacity:1;stroke:#000000;stroke-width:1.74216;stroke-miterlimit:2;stroke-opacity:1;paint-order:markers fill stroke"
       id="path20"
       cx="70.713737"
       cy="68.944672"
       rx="1.371222"
       ry="1.7767516" /><ellipse
       style="display:inline;fill:#000000;fill-opacity:1;stroke:#000000;stroke-width:1.74216;stroke-miterlimit:2;stroke-opacity:1;paint-order:markers fill stroke"
       id="path21"
       cx="74.203651"
       cy="68.104729"
       rx="1.0033332"
       ry="1.7121425" /><ellipse
       style="display:inline;fill:#000000;fill-opacity:1;stroke:#000000;stroke-width:1.74216;stroke-miterlimit:2;stroke-opacity:1;paint-order:markers fill stroke"
       id="path22"
       cx="76.912621"
       cy="68.040154"
       rx="0.76922226"
       ry="1.5183153" /><ellipse
       style="display:inline;fill:#000000;fill-opacity:1;stroke:#000000;stroke-width:1.74216;stroke-miterlimit:2;stroke-opacity:1;paint-order:markers fill stroke"
       id="path23"
       cx="79.509628"
       cy="68.374474"
       rx="0.60199994"
       ry="1.6798379" /><ellipse
       style="display:inline;fill:#000000;fill-opacity:1;stroke:#000000;stroke-width:1.74216;stroke-miterlimit:2;stroke-opacity:1;paint-order:markers fill stroke"
       id="path24"
       cx="82.352402"
       cy="69.073891"
       rx="1.1036664"
       ry="1.3890969" /><path
       id="rect4-4"
       style="display:inline;fill:none;stroke:#000000;stroke-width:1.86005;stroke-miterlimit:2;stroke-opacity:1;paint-order:markers fill stroke"
       d="m 114.98706,137.21052 c 0,0 7.21269,3.08382 10.35437,1.56272 1.26998,-0.61488 2.10037,-3.67518 2.10037,-3.67518 0,0 0.64976,2.96332 1.82568,3.64333 2.95813,1.71063 10.23433,-0.59092 10.23433,-0.59092 l 6.88381,29.62202 1.40718,30.54602 -5.8173,2.3323 -5.2129,-28.36095 -9.72439,-27.30295 -5.86713,23.64328 2.47323,31.6091 -5.03528,-0.57776 -7.38136,-31.35753 z"
       sodipodi:nodetypes="cacaccccccccccc" /><path
       id="rect5-2"
       style="display:inline;fill:#000000;fill-opacity:1;stroke:#000000;stroke-width:1.86005;stroke-miterlimit:2;stroke-opacity:1;paint-order:markers fill stroke"
       d="m 143.16761,203.64543 5.69003,-1.40207 3.31465,0.54227 c 0,0 4.18914,-0.69114 4.70854,0.77024 0.35849,1.00888 -2.18086,2.47829 -2.18086,2.47829 l -3.82905,-0.30515 -5.26046,1.75444 z"
       sodipodi:nodetypes="cccacccc" /><path
       id="rect5-8"
       style="display:inline;fill:#000000;fill-opacity:1;stroke:#000000;stroke-width:1.86005;stroke-miterlimit:2;stroke-opacity:1;paint-order:markers fill stroke"
       d="m 123.3725,203.59008 -5.84786,0.42384 -2.99294,1.53917 c 0,0 -4.20155,0.63638 -4.25161,2.18644 -0.0352,1.07009 2.83205,1.6833 2.83205,1.6833 l 3.55519,-1.47252 5.54586,0.0442 z"
       sodipodi:nodetypes="cccacccc" /></g><g
     inkscape:groupmode="layer"
     id="layer3"
     inkscape:label="Capa 3"
     style="display:inline"
     transform="translate(-13.678637,-33.625049)"><path
       id="rect6-7"
       style="display:inline;fill:none;stroke:#000000;stroke-width:1.94098;stroke-miterlimit:2;stroke-opacity:1;paint-order:markers fill stroke"
       d="m 107.54017,92.214184 c 0.86184,-0.904047 3.6316,-1.83977 3.6316,-1.83977 l 9.2247,-3.501157 6.85692,13.537563 7.65579,-13.507762 8.22738,2.44344 c 0,0 4.34142,1.132013 5.90171,2.613355 0.80133,0.760782 1.18579,1.897227 1.49758,2.957274 0.63731,2.16679 0.69911,6.739553 0.69911,6.739553 l 0.60824,8.98777 c 0,0 0.0603,5.78049 0.51887,8.62341 0.45388,2.81354 2.19619,8.26287 2.19619,8.26287 l 5.40531,14.35369 -7.14191,2.14126 -5.12189,-15.75692 c 0,0 -2.04231,-4.21074 -2.87085,-6.39577 -0.62731,-1.65433 -1.58362,-5.06607 -1.58362,-5.06607 l -1.25444,-11.13756 -1.81471,12.57292 -0.68985,16.4915 -8.20617,0.28569 -1.99191,-3.16067 -2.88613,0.12605 -2.05795,3.07254 -8.31375,-0.64017 -0.47335,-15.86323 -2.05778,-11.83179 -2.23242,11.17758 c 0,0 -0.15157,1.69499 -0.49744,2.4905 -0.24631,0.56592 -1.10087,1.57327 -1.10087,1.57327 l -7.658,10.94402 -1.72107,-1.55321 3.60274,-12.97234 c 0,0 0.32009,-0.97454 0.40882,-1.47174 0.11914,-0.66809 0.16214,-2.01959 0.16214,-2.01959 l 1.00735,-12.56014 c 0,0 -0.22819,-3.203534 0.0733,-4.779185 0.3509,-1.833111 0.58302,-3.849935 2.00001,-5.336345 z"
       sodipodi:nodetypes="acccccaaccaccccaccccccccccccaccccaccaaa" /><ellipse
       style="display:inline;fill:#000000;fill-opacity:1;stroke:#000000;stroke-width:1.72365;stroke-miterlimit:2;stroke-opacity:1;paint-order:markers fill stroke"
       id="path6-5-3"
       cx="127.14542"
       cy="110.41874"
       rx="1.3434592"
       ry="1.7491955" /><ellipse
       style="display:inline;fill:#000000;fill-opacity:1;stroke:#000000;stroke-width:1.72365;stroke-miterlimit:2;stroke-opacity:1;paint-order:markers fill stroke"
       id="path6-1-3"
       cx="127.60812"
       cy="116.10655"
       rx="1.3434592"
       ry="1.7491955" /><ellipse
       style="display:inline;fill:#000000;fill-opacity:1;stroke:#000000;stroke-width:1.72365;stroke-miterlimit:2;stroke-opacity:1;paint-order:markers fill stroke"
       id="path6-59"
       cx="127.15002"
       cy="104.93114"
       rx="1.3434592"
       ry="1.7491955" /><path
       id="rect7-9"
       style="display:inline;fill:none;stroke:#000000;stroke-width:1.94098;stroke-miterlimit:2;stroke-opacity:1;paint-order:markers fill stroke"
       d="m 125.60409,82.804042 c 0,0 1.41241,0.03962 2.11865,0.05883 0.8127,0.0223 2.438,0.06822 2.438,0.06822 0,0 1.67399,1.40151 2.51101,2.102302 0.68184,0.570918 2.0456,1.71264 2.0456,1.71264 l -7.32316,14.369556 -6.50953,-14.369556 c 0,0 1.87093,-0.994534 2.6421,-1.632114 0.82724,-0.683976 2.07733,-2.310016 2.07733,-2.310016 z"
       sodipodi:nodetypes="cacacccac" /><path
       id="path7-8"
       style="display:inline;fill:none;stroke:#000000;stroke-width:2.24547;stroke-miterlimit:2;stroke-opacity:1;paint-order:markers fill stroke"
       d="m 135.84704,73.648215 c 0,4.701381 -3.7116,8.512583 -8.29013,8.512583 -4.57849,0 -8.29013,-3.811202 -8.29013,-8.512583 0,-1.384065 0.80992,-4.598448 1.38069,-5.75369 0.72489,-1.467178 1.39427,-4.146183 3.61639,-4.510364 1.29956,-0.21307 1.77432,1.751468 3.29305,1.751468 1.28918,0 3.54753,-1.025958 4.89979,-0.303115 3.24106,1.732346 3.39034,5.438159 3.39034,8.815735 z"
       sodipodi:nodetypes="ssssasas" /><path
       id="path8-1"
       style="display:inline;fill:none;stroke:#000000;stroke-width:1.94098;stroke-miterlimit:2;stroke-opacity:1;paint-order:markers fill stroke"
       d="m 136.62924,71.529512 c 0,3.608878 -3.31726,-8.300218 -7.34887,-6.978302 -1.34272,0.440223 -4.12071,-1.605281 -5.67012,-1.605281 -2.81528,0 -2.87051,9.851882 -4.40185,8.495501 -1.84192,-1.631519 -1.29398,-3.134602 -1.29398,-5.761469 0,-1.336223 -0.0144,-3.295017 1.1722,-4.477608 1.12558,-1.124006 2.44976,-1.231097 3.33326,-1.992329 1.53358,-1.321363 0.95225,-1.859333 3.79417,-1.859333 2.32332,0 4.64453,0.547383 6.43569,1.484926 1.2924,0.676521 3.35029,2.32368 3.97683,4.507621 0.82288,2.868322 0.004,6.478273 0.004,8.186274 z"
       sodipodi:nodetypes="sssssssssss" /><path
       id="rect8-8"
       style="display:inline;fill:#000000;fill-opacity:1;stroke:#000000;stroke-width:0.755534;stroke-miterlimit:2;stroke-opacity:1;paint-order:markers fill stroke"
       d="m 125.17081,86.228723 2.54573,-2.261435 2.44587,2.387052 -0.89852,3.706288 -3.14469,-0.06266 z"
       sodipodi:nodetypes="cccccc" /><path
       id="rect9-2"
       style="display:inline;fill:#000000;fill-opacity:1;stroke:#000000;stroke-width:0.755534;stroke-miterlimit:2;stroke-opacity:1;paint-order:markers fill stroke"
       d="m 125.96948,90.060628 h 3.24453 l 1.54738,9.548345 -3.44421,4.460097 -2.84518,-4.397287 z"
       sodipodi:nodetypes="cccccc" /></g></svg>
