<?xml version="1.0" encoding="UTF-8" standalone="no"?>
<!-- Created with Inkscape (http://www.inkscape.org/) -->

<svg
   width="97.526039mm"
   height="92.654854mm"
   viewBox="0 0 97.526039 92.654854"
   version="1.1"
   id="svg1"
   inkscape:version="1.4 (86a8ad7, 2024-10-11)"
   sodipodi:docname="recepcion.svg"
   xmlns:inkscape="http://www.inkscape.org/namespaces/inkscape"
   xmlns:sodipodi="http://sodipodi.sourceforge.net/DTD/sodipodi-0.dtd"
   xmlns="http://www.w3.org/2000/svg"
   xmlns:svg="http://www.w3.org/2000/svg">
  <sodipodi:namedview
     id="namedview1"
     pagecolor="#ffffff"
     bordercolor="#000000"
     borderopacity="0.25"
     inkscape:showpageshadow="2"
     inkscape:pageopacity="0.0"
     inkscape:pagecheckerboard="0"
     inkscape:deskcolor="#d1d1d1"
     inkscape:document-units="mm"
     inkscape:zoom="0.86221714"
     inkscape:cx="430.28604"
     inkscape:cy="304.44767"
     inkscape:window-width="1366"
     inkscape:window-height="705"
     inkscape:window-x="-8"
     inkscape:window-y="-8"
     inkscape:window-maximized="1"
     inkscape:current-layer="layer1" />
  <defs
     id="defs1" />
  <g
     inkscape:label="Capa 1"
     inkscape:groupmode="layer"
     id="layer1"
     transform="translate(-53.114633,-36.695456)">
    <path
       d="m 96.606722,109.82214 c -1.35287,-0.0402 -2.72054,0.46117 -3.7867,1.51377 -2.13232,2.10526 -2.22736,5.59431 -0.21315,7.82299 l 1.75729,1.94442 7.803658,-7.48321 -1.86303,-2.06136 c -1.007108,-1.11435 -2.345198,-1.69633 -3.698068,-1.73661 z"
       style="display:inline;fill:#000000;fill-opacity:1;stroke:#000000;stroke-width:0.279355;stroke-miterlimit:2;stroke-opacity:1;paint-order:markers fill stroke"
       id="path15" />
    <path
       d="m 102.16782,113.62011 7.27235,8.04662 2.27484,-2.18141 c 2.16139,-2.07262 2.30496,-5.55987 0.32192,-7.81891 -1.98302,-2.25905 -5.31946,-2.40911 -7.48085,-0.33648 z"
       style="display:inline;fill:#000000;fill-opacity:1;stroke:#000000;stroke-width:0.279355;stroke-miterlimit:2;stroke-opacity:1;paint-order:markers fill stroke"
       id="path17" />
    <path
       d="m 102.16782,113.62011 -7.803658,7.48321 7.272318,8.0466 7.80369,-7.48319 z"
       style="display:inline;fill:#000000;fill-opacity:1;stroke:#000000;stroke-width:0.279355;stroke-miterlimit:2;stroke-opacity:1;paint-order:markers fill stroke"
       id="path16" />
    <g
       id="g20"
       transform="translate(0.14594382)">
      <path
         style="color:#000000;fill:#000000;stroke-linecap:square;stroke-miterlimit:2;-inkscape-stroke:none;paint-order:markers fill stroke"
         d="m 83.74071,47.059418 c 0,0 -1.430525,-0.997922 -2.330473,0.142504 -0.899947,1.140424 0.487678,2.201973 0.487678,2.201973 l 10.820289,8.538657 1.170461,0.923651 L 95.73149,56.521751 94.561029,55.5981 C 90.492572,52.398495 87.807281,50.261481 83.740741,47.059441 Z"
         id="path13-2"
         sodipodi:nodetypes="czccccccc" />
      <path
         style="color:#000000;fill:#000000;stroke-linecap:square;stroke-miterlimit:2;-inkscape-stroke:none;paint-order:markers fill stroke"
         d="m 104.02868,38.471869 c 0,0 -0.0633,-1.743054 -1.51571,-1.775955 -1.45238,-0.0329 -1.46567,1.714155 -1.46567,1.714155 l -0.31218,13.780053 -0.0338,1.490628 2.98138,0.06184 0.0338,-1.490627 c 0.10863,-5.174744 0.20046,-8.605366 0.31218,-13.780049 z"
         id="path1"
         sodipodi:nodetypes="czccccccc" />
      <path
         style="color:#000000;fill:#000000;stroke-linecap:square;stroke-miterlimit:2;-inkscape-stroke:none;paint-order:markers fill stroke"
         d="m 121.79764,48.027922 c 0,0 1.20728,-1.258854 0.2198,-2.324455 -0.98744,-1.065576 -2.25091,0.141078 -2.25091,0.141078 l -10.11011,9.368727 -1.09367,1.013419 2.03107,2.183401 1.09366,-1.013419 c 3.7906,-3.524359 6.31739,-5.846625 10.1101,-9.368726 z"
         id="path2"
         sodipodi:nodetypes="czccccccc" />
    </g>
    <path
       style="fill:#000000;stroke:#000000;stroke-width:1.62615;stroke-miterlimit:2;paint-order:markers fill stroke"
       d="m 127.63087,99.328786 c 0.23296,-0.07483 0.50663,0.135439 0.61301,0.470294 l 5.30856,16.71084 c 0.47154,1.48434 2.08049,2.38239 3.61473,2.11658 5.39731,-0.93513 12.41737,-1.29517 12.65174,-0.56056 0.30018,0.94009 -9.78723,5.10053 -15.01552,6.75604 -5.16614,1.63583 -15.68262,4.02359 -15.98384,3.08386 -0.24473,-0.76299 6.14251,-4.771 11.17725,-7.08575 1.41456,-0.65034 2.22196,-2.28262 1.75046,-3.76697 l -5.29843,-16.67989 c -0.10638,-0.33484 -0.005,-0.664956 0.2284,-0.739486 l 0.3752,-0.119825 c 0.0866,-0.01462 0.17274,-0.03041 0.25858,-0.04755 0.08,-0.03596 0.15955,-0.07323 0.23862,-0.111721 z"
       id="path14" />
    <path
       style="fill:#000000;stroke:#000000;stroke-width:1.62615;stroke-miterlimit:2;paint-order:markers fill stroke"
       d="m 76.124458,99.328785 c -0.232968,-0.07483 -0.506639,0.135444 -0.613011,0.470294 L 70.20288,116.50992 c -0.47154,1.48434 -2.080487,2.38239 -3.614731,2.11658 -5.397304,-0.93513 -12.417363,-1.29517 -12.651747,-0.56056 -0.300165,0.94009 9.787242,5.10053 15.015533,6.75604 5.166129,1.63583 15.682611,4.02359 15.983837,3.08386 0.244734,-0.76299 -6.14251,-4.771 -11.177255,-7.08575 -1.414555,-0.65034 -2.221962,-2.28262 -1.750451,-3.76697 l 5.29843,-16.67989 c 0.106376,-0.33484 0.0047,-0.664957 -0.228363,-0.739498 l -0.37521,-0.119823 c -0.08652,-0.01463 -0.172731,-0.03041 -0.258579,-0.04755 -0.08001,-0.03596 -0.159541,-0.07323 -0.238612,-0.111723 z"
       id="path7" />
    <path
       style="fill:#000000;fill-opacity:1;stroke:#000000;stroke-width:1.71017;stroke-miterlimit:2;paint-order:markers fill stroke"
       d="m 117.00113,94.362173 c 2.85454,2.555449 7.08779,5.963007 10.43142,4.826334 6.11576,-2.079061 8.98453,-18.811384 5.05861,-18.740498 -2.69982,0.04875 -5.5779,3.968258 -8.6299,4.180072 -8.18756,0.568231 -6.17389,-4.438554 -8.63503,-4.765466 -2.32484,-0.308806 -5.14528,0.557071 -4.74459,2.497956 0.87573,4.241904 3.29237,9.112606 6.51949,12.001602 z"
       id="path18"
       sodipodi:nodetypes="sssssss" />
    <path
       style="fill:#000000;fill-opacity:1;stroke:#000000;stroke-width:1.71017;stroke-miterlimit:2;paint-order:markers fill stroke"
       d="M 86.754188,94.362173 C 83.899652,96.917622 79.6664,100.32518 76.322769,99.188507 70.20701,97.109446 66.262018,85.721498 70.789268,81.533476 c 1.989081,-1.84004 4.548649,2.406397 7.544429,3.026763 9.951449,2.060748 11.329862,-8.034163 14.333741,-7.207766 2.26125,0.622089 1.210464,3.949155 0.809773,5.89004 -0.875731,4.241904 -3.495897,8.230664 -6.723023,11.11966 z"
       id="path8" />
    <path
       style="fill:none;stroke:#000000;stroke-width:1.5;stroke-linecap:square;stroke-miterlimit:4.4"
       d="m 128.25872,62.951959 c 0,0 8.4066,15.243259 7.38251,23.333306 -0.65057,5.139258 -2.56365,11.385044 -8.24783,13.171252 -5.68418,1.786213 -10.18482,-3.139919 -13.40074,-7.025334 -5.13633,-6.205605 -7.09056,-23.174139 -7.09056,-23.174139"
       id="path19" />
    <path
       style="fill:none;stroke:#000000;stroke-width:1.5;stroke-linecap:square;stroke-miterlimit:4.4"
       d="m 75.496598,62.951959 c 0,0 -8.406601,15.243259 -7.382505,23.333306 0.650566,5.139258 2.56365,11.385044 8.24783,13.171252 5.684179,1.786213 10.184821,-3.139919 13.400742,-7.025334 5.136321,-6.205605 7.090552,-23.174139 7.090552,-23.174139"
       id="rect4" />
    <path
       style="fill:none;stroke:#000000;stroke-width:1.7;stroke-linecap:square;stroke-miterlimit:4.4"
       d="m 106.91397,69.355165 c 0.55558,1.887516 5.78469,2.011051 11.67955,0.275927 5.89486,-1.735125 10.22319,-4.671855 9.66761,-6.559371 -0.55559,-1.887514 -5.7847,-2.011049 -11.67955,-0.275922 -5.89485,1.735123 -10.22319,4.671852 -9.66761,6.559366 z"
       id="path20" />
    <path
       style="fill:none;stroke:#000000;stroke-width:1.7;stroke-linecap:square;stroke-miterlimit:4.4"
       d="m 96.841346,69.355166 c -0.555582,1.887515 -5.784696,2.011049 -11.679547,0.275925 -5.894853,-1.735125 -10.223188,-4.671855 -9.667606,-6.55937 0.555583,-1.887514 5.784694,-2.011049 11.679546,-0.275924 5.894851,1.735125 10.223189,4.671854 9.667607,6.559369 z"
       id="path9" />
  </g>
</svg>
