<?xml version="1.0" encoding="UTF-8" standalone="no"?>
<!-- Created with Inkscape (http://www.inkscape.org/) -->

<svg
   width="188.56686mm"
   height="155.06195mm"
   viewBox="0 0 188.56686 155.06195"
   version="1.1"
   id="svg1"
   inkscape:version="1.4 (86a8ad7, 2024-10-11)"
   sodipodi:docname="iglesia boda.svg"
   xmlns:inkscape="http://www.inkscape.org/namespaces/inkscape"
   xmlns:sodipodi="http://sodipodi.sourceforge.net/DTD/sodipodi-0.dtd"
   xmlns="http://www.w3.org/2000/svg"
   xmlns:svg="http://www.w3.org/2000/svg">
  <sodipodi:namedview
     id="namedview1"
     pagecolor="#ffffff"
     bordercolor="#000000"
     borderopacity="0.25"
     inkscape:showpageshadow="2"
     inkscape:pageopacity="0.0"
     inkscape:pagecheckerboard="0"
     inkscape:deskcolor="#d1d1d1"
     inkscape:document-units="mm"
     inkscape:zoom="0.63847352"
     inkscape:cx="374.33033"
     inkscape:cy="519.20713"
     inkscape:window-width="1366"
     inkscape:window-height="705"
     inkscape:window-x="-8"
     inkscape:window-y="-8"
     inkscape:window-maximized="1"
     inkscape:current-layer="layer3" />
  <defs
     id="defs1" />
  <g
     inkscape:label="Capa 1"
     inkscape:groupmode="layer"
     id="layer1"
     style="display:inline"
     transform="translate(-53.361193,-27.913525)">
    <path
       id="rect4"
       style="display:inline;fill:#000000;stroke:#000000;stroke-width:1;stroke-miterlimit:2;stroke-dasharray:none;paint-order:markers fill stroke"
       d="m 109.50848,30.098843 c -0.95416,0 -2.52801,1.535824 -2.52801,1.535824 v 7.550444 h -7.32359 c 0,0 -0.616733,1.256151 -0.632003,1.948718 -0.0177,0.802645 0.632003,2.297534 0.632003,2.297534 h 7.32359 V 60.238606 L 82.133919,75.309521 c -0.18914,0 -0.341065,0.139633 -0.341065,0.313163 V 182.16232 c 0,0.17352 0.151925,0.31316 0.341065,0.31316 h 12.143445 v -33.81073 c 0,-0.10822 0.167542,-0.13373 0.258382,-0.19534 1.571896,-1.06599 3.13926,-2.16367 4.937166,-3.00137 2.879538,-1.34167 5.852368,-3.18682 9.235618,-3.18017 4.01275,0.008 7.51446,2.22125 10.92801,3.81476 1.42325,0.6644 2.67425,1.52411 3.92121,2.36678 0.091,0.0613 0.25838,0.087 0.25838,0.19534 v 33.81073 h 11.54141 c 0.18913,0 0.34107,-0.13964 0.34107,-0.31316 V 75.622684 c 0,-0.17353 -0.1854,-0.21456 -0.34107,-0.313163 l -26.04337,-16.486333 -2.2195,1.346171 4.9413,0.195854 v -16.93385 h 7.52822 c 0,0 0.64001,-1.432945 0.63201,-2.2071 -0.008,-0.721057 -0.63201,-2.039152 -0.63201,-2.039152 h -7.52822 v -7.550444 c 0,0 -1.57334,-1.535824 -2.52749,-1.535824 z m -0.9276,49.543751 c 2.07603,0.005 3.88791,1.2477 5.65392,2.14302 0.73633,0.3733 1.38318,0.8567 2.0283,1.33015 0.0471,0.0345 0.13384,0.0487 0.13384,0.10955 v 20.094896 c 0,0.0608 -0.0597,0.10955 -0.13384,0.10955 h -15.01407 c -0.0742,0 -0.13384,-0.0487 -0.13384,-0.10955 V 83.225314 c 0,-0.0608 0.0869,-0.0749 0.13384,-0.10955 0.81323,-0.59892 1.6237,-1.21606 2.55385,-1.68672 1.48975,-0.75383 3.02769,-1.79017 4.778,-1.78645 z"
       sodipodi:nodetypes="scccsccccssscscscscscsssccccccccccscscsssssscsc" />
    <path
       d="m 131.04056,50.690839 c -1.35287,-0.0289 -2.72054,0.33137 -3.7867,1.08775 -2.13232,1.51278 -2.22736,4.01993 -0.21315,5.6214 l 1.75729,1.39721 7.80365,-5.37724 -1.86302,-1.48124 c -1.00711,-0.80074 -2.3452,-1.21894 -3.69807,-1.24788 z"
       style="display:inline;fill:#000000;fill-opacity:1;stroke:#000000;stroke-width:0.279355;stroke-miterlimit:2;paint-order:markers fill stroke"
       id="path15" />
    <path
       d="m 136.60165,53.419959 7.27231,5.78209 2.27482,-1.56751 c 2.16138,-1.48933 2.30495,-3.99517 0.32192,-5.61846 -1.98301,-1.62329 -5.31943,-1.73112 -7.48081,-0.24178 z"
       style="display:inline;fill:#000000;fill-opacity:1;stroke:#000000;stroke-width:0.279355;stroke-miterlimit:2;paint-order:markers fill stroke"
       id="path17" />
    <path
       d="m 136.60165,53.419959 -7.80365,5.37724 7.27231,5.78208 7.80365,-5.37723 z"
       style="display:inline;fill:#000000;fill-opacity:1;stroke:#000000;stroke-width:0.279355;stroke-miterlimit:2;paint-order:markers fill stroke"
       id="path16" />
    <rect
       style="display:inline;fill:#000000;fill-opacity:1;stroke:#000000;stroke-width:2.71991;stroke-miterlimit:2;paint-order:markers fill stroke"
       id="rect17"
       width="28.087143"
       height="54.578239"
       x="54.721149"
       y="118.70916"
       ry="0.18777782"
       rx="0.19076307" />
    <path
       id="rect18"
       style="display:inline;fill:#000000;fill-opacity:1;stroke:#000000;stroke-width:2.79861;stroke-miterlimit:2;paint-order:markers fill stroke"
       d="m 135.52248,117.98495 c -0.11105,0 -0.20051,0.2005 -0.20051,0.2005 v 54.56825 c 0,0.11105 0.0895,0.2005 0.20051,0.2005 h 104.80333 c 0.11105,0 0.20051,-0.0894 0.20051,-0.2005 v -54.56825 c 0,-0.11105 -0.0895,-0.2005 -0.20051,-0.2005 z m 90.21714,18.21336 c 2.25334,0.006 4.22025,1.65383 6.1371,2.84065 0.79922,0.49483 1.50119,1.13509 2.20141,1.76268 0.0511,0.0457 0.14573,0.065 0.14573,0.14573 v 26.63713 c 0,0.0806 -0.0652,0.14573 -0.14573,0.14573 h -16.29668 c -0.0805,0 -0.14521,-0.065 -0.14521,-0.14573 v -26.63713 c 0,-0.0806 0.0942,-0.0998 0.14521,-0.14573 0.88269,-0.79392 1.76233,-1.61162 2.77193,-2.23552 1.61699,-0.99926 3.28641,-2.37275 5.18624,-2.36781 z m -30.23794,0.57309 c 2.25332,0.006 4.21974,1.65383 6.13657,2.84065 0.79922,0.49483 1.50172,1.13561 2.20194,1.7632 0.0511,0.0457 0.14521,0.065 0.14521,0.14573 v 26.63662 c 0,0.0806 -0.0647,0.14572 -0.14521,0.14572 h -16.29668 c -0.0805,0 -0.14573,-0.065 -0.14573,-0.14572 v -26.63662 c 0,-0.0806 0.0947,-0.0998 0.14573,-0.14573 0.88269,-0.79392 1.76232,-1.61162 2.77192,-2.23552 1.61699,-0.99926 3.28641,-2.37327 5.18625,-2.36833 z m -33.35094,0.33073 c 2.25334,0.006 4.21973,1.65383 6.13658,2.84065 0.79922,0.49483 1.50171,1.13561 2.20193,1.7632 0.0511,0.0457 0.14521,0.065 0.14521,0.14573 v 26.63713 c 0,0.0806 -0.0647,0.14521 -0.14521,0.14521 h -16.29668 c -0.0805,0 -0.14521,-0.0645 -0.14521,-0.14521 v -26.63713 c 0,-0.0806 0.0942,-0.0998 0.14521,-0.14573 0.88269,-0.79392 1.76235,-1.61162 2.77192,-2.23552 1.61699,-0.99926 3.28641,-2.37327 5.18625,-2.36833 z"
       sodipodi:nodetypes="scssssssscscsssssscsccscsssssscsccscsssssscsc" />
    <path
       id="rect19"
       style="display:inline;fill:#000000;stroke:#000000;stroke-width:3;stroke-miterlimit:2;paint-order:markers fill stroke"
       d="m 58.34872,98.313604 23.245176,-0.0924 c 0.127852,-5.1e-4 0.230781,0.10293 0.230781,0.23078 v 13.542486 c 0,0.12785 -0.102928,0.23078 -0.230781,0.23078 H 55.114563 c -0.127853,0 -0.261877,-0.10677 -0.230781,-0.23078 l 3.418966,-13.634886 c 0.0311,-0.12402 -0.08188,-0.0455 0.04597,-0.046 z"
       sodipodi:nodetypes="sssssssss" />
    <path
       id="rect20"
       style="display:inline;fill:#000000;stroke:#000000;stroke-width:3;stroke-miterlimit:2;paint-order:markers fill stroke"
       d="m 136.90235,95.186464 96.31595,-0.0924 c 0.12785,-1.3e-4 0.041,-0.11741 0.0922,-2.4e-4 l 7.11515,16.292116 c 0.0512,0.11716 -0.10293,0.23078 -0.23078,0.23078 H 136.90235 c -0.12785,0 -0.23078,-0.10293 -0.23078,-0.23078 V 95.417244 c 0,-0.12786 0.10293,-0.23066 0.23078,-0.23078 z"
       sodipodi:nodetypes="sssssssss" />
    <path
       d="m 150.44888,28.098476 c -1.43722,-0.0464 -2.89016,0.53177 -4.0228,1.74558 -2.26526,2.42765 -2.36623,6.45103 -0.22642,9.02101 l 1.86684,2.24218 8.29021,-8.62918 -1.97918,-2.37704 c -1.06991,-1.28499 -2.49143,-1.95611 -3.92865,-2.00255 z"
       style="display:inline;fill:#000000;fill-opacity:1;stroke:#000000;stroke-width:0.36475;stroke-miterlimit:2;paint-order:markers fill stroke"
       id="path15-1" />
    <path
       d="m 156.35671,32.478066 7.72573,9.27887 2.41665,-2.51548 c 2.29615,-2.39002 2.44867,-6.41129 0.34201,-9.01628 -2.10666,-2.605 -5.65111,-2.77804 -7.94725,-0.388 z"
       style="display:inline;fill:#000000;fill-opacity:1;stroke:#000000;stroke-width:0.36475;stroke-miterlimit:2;paint-order:markers fill stroke"
       id="path17-3" />
    <path
       d="m 156.35671,32.478066 -8.29021,8.62918 7.72574,9.27886 8.2902,-8.62917 z"
       style="display:inline;fill:#000000;fill-opacity:1;stroke:#000000;stroke-width:0.36475;stroke-miterlimit:2;paint-order:markers fill stroke"
       id="path16-8" />
  </g>
</svg>
