<?xml version="1.0" encoding="UTF-8" standalone="no"?>
<!-- Created with Inkscape (http://www.inkscape.org/) -->

<svg
   width="135.61557mm"
   height="109.14231mm"
   viewBox="0 0 135.61557 109.14231"
   version="1.1"
   id="svg1"
   xmlns:inkscape="http://www.inkscape.org/namespaces/inkscape"
   xmlns:sodipodi="http://sodipodi.sourceforge.net/DTD/sodipodi-0.dtd"
   xmlns="http://www.w3.org/2000/svg"
   xmlns:svg="http://www.w3.org/2000/svg">
  <sodipodi:namedview
     id="namedview1"
     pagecolor="#ffffff"
     bordercolor="#000000"
     borderopacity="0.25"
     inkscape:showpageshadow="2"
     inkscape:pageopacity="0.0"
     inkscape:pagecheckerboard="0"
     inkscape:deskcolor="#d1d1d1"
     inkscape:document-units="mm" />
  <defs
     id="defs1" />
  <g
     inkscape:label="Layer 1"
     inkscape:groupmode="layer"
     id="layer1"
     transform="translate(-35.415883,-38.543265)">
    <path
       id="path1"
       style="display:inline;fill:#3aa8a0;fill-opacity:0;stroke:#000000;stroke-width:0.600001;stroke-linecap:round;stroke-miterlimit:4.4"
       d="m 149.48907,119.81284 a 46.579189,46.166611 0 0 1 0.31367,4.89789 46.579189,46.166611 0 0 1 -0.77411,7.93802 106.77645,33.910511 0 0 1 -45.80496,3.3383 106.77645,33.910511 0 0 1 -45.804953,-3.3383 46.579189,46.166611 0 0 1 -0.774113,-7.93802 46.579189,46.166611 0 0 1 0.320911,-4.8736 67.407845,14.360068 0 0 0 -21.149613,10.41693 67.407845,14.360068 0 0 0 67.407768,14.36037 67.407845,14.360068 0 0 0 67.40778,-14.36037 67.407845,14.360068 0 0 0 -21.14238,-10.44122 z" />
    <path
       id="ellipse2"
       style="display:inline;fill:#ffffff;fill-opacity:0;stroke:#000000;stroke-width:0.8;stroke-linecap:round;stroke-miterlimit:4.4;stroke-dasharray:none"
       d="m 56.965515,119.83765 a 67.407845,14.360068 0 0 0 -21.149613,10.41641 67.407845,14.360068 0 0 0 24.840861,11.10475 40.676697,6.209609 0 0 0 40.564447,5.92677 40.676697,6.209609 0 0 0 40.04459,-5.18108 67.407845,14.360068 0 0 0 29.36565,-11.85044 67.407845,14.360068 0 0 0 -21.14083,-10.41486 46.579189,46.166611 0 0 1 0.31212,4.87153 46.579189,46.166611 0 0 1 -0.77411,7.93802 106.77645,33.910511 0 0 1 -45.80496,3.3383 106.77645,33.910511 0 0 1 -45.804953,-3.3383 46.579189,46.166611 0 0 1 -0.774113,-7.93802 46.579189,46.166611 0 0 1 0.320911,-4.87308 z" />
    <path
       id="path2"
       style="fill:#ffffff;fill-opacity:0;stroke:#000000;stroke-width:0.799999;stroke-linecap:round;stroke-miterlimit:4.4;stroke-dasharray:none"
       d="m 105.73773,78.618974 a 2.5164855,5.2405376 0 0 1 -2.51406,5.165576 2.5164855,5.2405376 0 0 1 -2.51147,-5.07721 46.579189,46.166611 0 0 0 -44.067596,46.00339 46.579189,46.166611 0 0 0 0.774113,7.93802 106.77645,33.910511 0 0 0 45.804953,3.3383 106.77645,33.910511 0 0 0 45.80496,-3.3383 46.579189,46.166611 0 0 0 0.77411,-7.93802 46.579189,46.166611 0 0 0 -44.06501,-46.091756 z" />
    <path
       id="path3"
       style="fill:#ffffff;fill-opacity:0;stroke:#000000;stroke-width:0.711709;stroke-linecap:round;stroke-miterlimit:4.4;stroke-dasharray:none"
       d="m 105.48865,76.264079 a 6.0155487,3.280021 0 0 1 -2.26498,0.242879 6.0155487,3.280021 0 0 1 -2.26032,-0.241846 2.5164855,5.2405376 0 0 0 -0.25632,2.278931 2.5164855,5.2405376 0 0 0 2.51664,5.240507 2.5164855,5.2405376 0 0 0 2.51665,-5.240507 2.5164855,5.2405376 0 0 0 -0.25167,-2.279964 z" />
    <ellipse
       style="fill:#ffffff;fill-opacity:0;stroke:#000000;stroke-width:0.694474;stroke-linecap:round;stroke-miterlimit:4.4;stroke-dasharray:none"
       id="path4"
       cx="103.22367"
       cy="73.22715"
       rx="6.0155487"
       ry="3.280021" />
    <path
       style="fill:#ffffff;fill-opacity:0;stroke:#000000;stroke-width:0.8;stroke-linecap:round;stroke-miterlimit:4.4;stroke-dasharray:none"
       d="M 95.367471,68.09376 C 92.917096,61.441364 90.506409,60.123784 98.975272,53.814013 102.92254,51.364991 107.97349,41.056527 97.291631,38.943267"
       id="path16"
       sodipodi:nodetypes="ccc" />
    <path
       style="fill:#ffffff;fill-opacity:0;stroke:#000000;stroke-width:0.8;stroke-linecap:round;stroke-miterlimit:4.4;stroke-dasharray:none"
       d="m 102.29273,68.09376 c -2.450389,-6.652396 -4.861076,-7.969976 3.60782,-14.279747 3.94727,-2.449022 8.99823,-12.757486 -1.68365,-14.870746"
       id="path17"
       sodipodi:nodetypes="ccc" />
    <path
       style="fill:#ffffff;fill-opacity:0;stroke:#000000;stroke-width:0.8;stroke-linecap:round;stroke-miterlimit:4.4;stroke-dasharray:none"
       d="m 109.21801,68.09376 c -2.45039,-6.652396 -4.86109,-7.969976 3.60783,-14.279747 3.94727,-2.449022 8.99822,-12.757486 -1.68366,-14.870746"
       id="path18"
       sodipodi:nodetypes="ccc" />
  </g>
</svg>
