<?xml version="1.0" encoding="UTF-8" standalone="no"?>
<!-- Created with Inkscape (http://www.inkscape.org/) -->

<svg
   width="158.44788mm"
   height="144.78455mm"
   viewBox="0 0 158.44788 144.78455"
   version="1.1"
   id="svg1"
   inkscape:version="1.4 (86a8ad7, 2024-10-11)"
   sodipodi:docname="buen provecho.svg"
   xmlns:inkscape="http://www.inkscape.org/namespaces/inkscape"
   xmlns:sodipodi="http://sodipodi.sourceforge.net/DTD/sodipodi-0.dtd"
   xmlns="http://www.w3.org/2000/svg"
   xmlns:svg="http://www.w3.org/2000/svg">
  <sodipodi:namedview
     id="namedview1"
     pagecolor="#ffffff"
     bordercolor="#000000"
     borderopacity="0.25"
     inkscape:showpageshadow="2"
     inkscape:pageopacity="0.0"
     inkscape:pagecheckerboard="0"
     inkscape:deskcolor="#d1d1d1"
     inkscape:document-units="mm"
     inkscape:zoom="0.68319661"
     inkscape:cx="648.42242"
     inkscape:cy="438.3804"
     inkscape:window-width="1366"
     inkscape:window-height="705"
     inkscape:window-x="-8"
     inkscape:window-y="-8"
     inkscape:window-maximized="1"
     inkscape:current-layer="svg1" />
  <defs
     id="defs1">
    <inkscape:path-effect
       effect="fillet_chamfer"
       id="path-effect9"
       is_visible="true"
       lpeversion="1"
       nodesatellites_param="F,0,0,1,0,0,0,1 @ F,0,0,1,0,0,0,1 @ F,0,0,1,0,0,0,1 @ F,0,0,1,0,0,0,1 @ F,0,0,1,0,0,0,1 @ F,0,0,1,0,0,0,1 @ F,0,0,1,0,0,0,1 @ F,0,0,1,0,0,0,1 @ F,0,0,1,0,0,0,1 @ F,0,0,1,0,0,0,1 @ F,0,0,1,0,0,0,1 @ F,0,0,1,0,0,0,1 @ F,0,0,1,0,0,0,1 @ F,0,0,1,0,0,0,1 @ F,0,0,1,0,0,0,1 @ F,0,0,1,0,0,0,1 @ F,0,0,1,0,0,0,1 @ F,0,0,1,0,0,0,1 @ F,0,1,1,0,2.9036504,0,1 @ F,0,0,1,0,0,0,1 @ F,0,0,1,0,0,0,1 @ F,0,0,1,0,0,0,1 @ F,0,0,1,0,2.9036504,0,1 @ F,0,0,1,0,0,0,1 @ F,0,0,1,0,0,0,1 @ F,0,0,1,0,0,0,1"
       radius="0"
       unit="px"
       method="auto"
       mode="F"
       chamfer_steps="1"
       flexible="false"
       use_knot_distance="true"
       apply_no_radius="true"
       apply_with_radius="true"
       only_selected="false"
       hide_knots="false" />
  </defs>
  <g
     inkscape:label="Capa 1"
     inkscape:groupmode="layer"
     id="layer1"
     style="display:inline"
     transform="translate(-80.694067,-56.097268)">
    <path
       id="path4"
       style="fill:#000000;fill-opacity:1;stroke:#000000;stroke-width:0.995195;stroke-miterlimit:2;paint-order:markers fill stroke"
       d="m 97.444698,54.746529 c -0.157192,1.27e-4 -0.314242,0.103467 -0.324011,0.309542 l -1.115178,23.518978 c -0.02032,0.429581 -0.374541,0.76742 -0.804602,0.767395 h -2.467549 c -0.430061,2.5e-5 -0.78428,-0.337814 -0.804602,-0.767395 L 90.813578,55.056071 c -0.0083,-0.17292 -0.15089,-0.30888 -0.324011,-0.309025 -0.173321,-1.31e-4 -0.316181,0.135905 -0.324528,0.309025 l -1.141016,23.518978 c -0.02079,0.429777 -0.375356,0.767518 -0.805635,0.767395 h -2.468067 c -0.430061,2.5e-5 -0.78428,-0.337814 -0.804602,-0.767395 L 83.830542,55.056071 c -0.0098,-0.206075 -0.16681,-0.308938 -0.324011,-0.309025 -0.157201,-8.8e-5 -0.314529,0.102444 -0.324528,0.308508 l -1.105359,24.28689 c -0.07109,1.561924 1.132734,3.127833 2.420524,4.017842 0.807428,0.456215 1.698688,0.804877 2.634717,1.047392 1.549301,0.401407 2.586588,1.681339 2.405032,3.273371 -1.180529,10.351854 -1.968619,40.882721 -1.968619,48.272411 0,8.93703 1.301787,16.18196 2.907316,16.18196 1.605532,0 2.9068,-7.24493 2.9068,-16.18196 0,-7.38843 -0.991419,-37.909917 -2.242189,-48.266804 -0.192101,-1.590671 0.837269,-2.842184 2.395452,-3.207828 1.039609,-0.243956 2.029739,-0.616438 2.918384,-1.118542 1.36129,-0.769158 2.569765,-2.443482 2.493388,-4.017842 l -1.178223,-24.28689 c -0.01,-0.206064 -0.167336,-0.309151 -0.324528,-0.309025 z"
       inkscape:path-effect="#path-effect9"
       inkscape:original-d="m 97.444698,54.746529 c -0.157192,1.27e-4 -0.314242,0.103467 -0.324011,0.309542 l -1.115178,23.518978 a 0.80545569,0.80545569 0 0 1 -0.804602,0.767395 H 92.733358 A 0.80545569,0.80545569 0 0 1 91.928756,78.575049 L 90.813578,55.056071 c -0.0083,-0.17292 -0.15089,-0.30888 -0.324011,-0.309025 -0.173321,-1.31e-4 -0.316181,0.135905 -0.324528,0.309025 l -1.141016,23.518978 a 0.80634637,0.80634637 0 0 1 -0.805635,0.767395 H 85.750321 A 0.80545569,0.80545569 0 0 1 84.945719,78.575049 L 83.830542,55.056071 c -0.0098,-0.206075 -0.16681,-0.308938 -0.324011,-0.309025 -0.157201,-8.8e-5 -0.314529,0.102444 -0.324528,0.308508 l -1.105359,24.28689 c -0.07109,1.561924 1.132734,3.127833 2.420524,4.017842 1.60544,0.90711 3.542305,1.389006 5.50354,1.456759 -1.433371,5.160795 -2.43241,42.816295 -2.43241,51.136415 0,8.93703 1.301787,16.18196 2.907316,16.18196 1.605532,0 2.9068,-7.24493 2.9068,-16.18196 0,-8.31559 -1.255854,-45.934364 -2.723865,-51.12763 2.060351,-0.02739 4.110396,-0.513416 5.795512,-1.465544 1.36129,-0.769158 2.569765,-2.443482 2.493388,-4.017842 l -1.178223,-24.28689 c -0.01,-0.206064 -0.167336,-0.309151 -0.324528,-0.309025 z"
       transform="translate(-0.88176011,27.334563)"
       inkscape:export-filename="..\Documents\WebDevProjects\event-invitations-project\icons\itinerary\food_icon.svg"
       inkscape:export-xdpi="96"
       inkscape:export-ydpi="96" />
    <path
       d="m 236.22506,136.67085 c -0.45194,-2.57826 -0.94157,-4.25971 -1.44377,-4.30355 a 13.289113,2.5694827 0 0 1 -0.0363,-0.002 c -0.50306,0.0354 -0.97011,1.71974 -1.38783,4.30451 z"
       style="display:inline;stroke:#000000;stroke-width:0.873433;stroke-miterlimit:2;paint-order:markers fill stroke"
       id="path15" />
    <path
       d="m 236.29216,136.41713 h -2.88891 c -1.25366,8.85087 -2.06437,26.91506 -2.06437,31.63365 0,6.31937 1.64146,11.44232 3.66649,11.44232 2.02504,0 3.66666,-5.12295 3.66666,-11.44232 0,-4.71848 -1.02007,-22.78271 -2.37987,-31.63365 z"
       style="display:inline;stroke:#000000;stroke-width:0.939843;stroke-miterlimit:2;paint-order:markers fill stroke"
       id="path12" />
    <path
       style="fill:#ffffff;fill-opacity:1;stroke:#000000;stroke-width:2.5;stroke-linecap:round;stroke-miterlimit:2;stroke-dasharray:none;paint-order:markers fill stroke"
       id="path16"
       transform="rotate(90)"
       sodipodi:type="arc"
       sodipodi:cx="113.20625"
       sodipodi:cy="-160.40321"
       sodipodi:rx="55.858498"
       sodipodi:ry="55.858501"
       sodipodi:start="0.5286219"
       sodipodi:end="5.6580138"
       sodipodi:arc-type="arc"
       d="m 161.44023,-132.23132 a 55.858498,55.858501 0 0 1 -61.521105,26.08329 55.858498,55.858501 0 0 1 -42.506294,-51.55967 55.858498,55.858501 0 0 1 37.337995,-55.41713 55.858498,55.858501 0 0 1 63.749004,20.03119"
       sodipodi:open="true" />
    <path
       style="fill:#ffffff;stroke:#000000;stroke-width:2;stroke-linecap:round;stroke-miterlimit:4.4;stroke-dasharray:none"
       id="path10"
       transform="rotate(90)"
       sodipodi:type="arc"
       sodipodi:cx="113.37103"
       sodipodi:cy="-160.62349"
       sodipodi:rx="31.096989"
       sodipodi:ry="31.096989"
       sodipodi:start="0.78743142"
       sodipodi:end="5.4318746"
       sodipodi:arc-type="arc"
       d="m 135.31517,-138.58993 a 31.096989,31.096989 0 0 1 -43.47508,0.40394 31.096989,31.096989 0 0 1 -1.388402,-43.45479 31.096989,31.096989 0 0 1 43.412192,-2.37215"
       sodipodi:open="true" />
  </g>
  <g
     inkscape:groupmode="layer"
     id="layer2"
     inkscape:label="Capa 2"
     style="display:inline;fill:#000000;fill-opacity:1"
     transform="translate(-80.694067,-56.097268)">
    <path
       d="m 236.28986,115.88347 c -0.38573,-1.6e-4 -0.80317,-0.0217 -1.24007,-0.072 -0.43691,-0.0503 -0.89321,-0.12943 -1.35696,-0.24494 -0.46377,-0.11553 -0.9349,-0.26747 -1.40119,-0.46322 -0.46628,-0.19575 -0.92774,-0.43532 -1.37223,-0.72635 -0.44449,-0.29104 -0.87194,-0.63344 -1.2703,-1.03478 -0.17922,-0.18056 -0.3501,-0.3773 -0.51641,-0.5824 -0.0476,-0.0588 -0.0934,-0.1208 -0.13988,-0.1817 -0.12152,-0.15909 -0.23847,-0.32559 -0.35131,-0.49934 -0.0443,-0.0682 -0.0891,-0.13523 -0.13199,-0.20577 -0.2917,-0.48009 -0.54881,-1.01477 -0.76369,-1.60868 -0.0316,-0.0873 -0.0602,-0.17861 -0.0899,-0.26854 -0.075,-0.227 -0.1434,-0.46259 -0.20579,-0.70652 -0.0248,-0.097 -0.0506,-0.19243 -0.0733,-0.29215 -0.0772,-0.33909 -0.14622,-0.68883 -0.19775,-1.06049 v 28.73424 h 6.1782 c 0.41772,-2.58477 0.88477,-4.26919 1.38783,-4.3045 a 13.289113,2.5694827 0 0 0 0.0362,0.002 c 0.5022,0.0438 0.99184,1.72529 1.44377,4.30355 h 0.0649 z"
       style="stroke:#000000;stroke-width:0.953298;stroke-linejoin:round;stroke-miterlimit:2;paint-order:markers fill stroke"
       id="path13" />
    <path
       d="m 236.28986,81.169427 c -2.99159,2.423501 -8.33627,14.07871 -9.11078,21.974203 v 4.79298 c 0.0516,0.37161 0.12056,0.72146 0.19776,1.0605 0.0227,0.0996 0.0484,0.19523 0.0733,0.29214 0.0623,0.24387 0.13081,0.47958 0.2058,0.70652 0.0297,0.0899 0.0583,0.18125 0.0899,0.26855 0.21488,0.59392 0.47195,1.12858 0.76368,1.60867 0.0428,0.0705 0.0877,0.1376 0.132,0.20578 0.11279,0.17365 0.22985,0.34032 0.3513,0.49933 0.0465,0.0609 0.0922,0.12294 0.13988,0.1817 2.0147,2.48425 5.05506,3.12282 7.15716,3.12367 z"
       style="stroke:#000000;stroke-width:0.995629;stroke-linecap:round;stroke-linejoin:round;stroke-miterlimit:2;paint-order:markers fill stroke"
       id="path14"
       sodipodi:nodetypes="cccscscsssccc" />
  </g>
  <path
     style="fill:#000000;fill-opacity:1;stroke:#000000;stroke-width:2.14437;stroke-linecap:round;stroke-linejoin:round;stroke-miterlimit:2;paint-order:markers fill stroke"
     d="m 66.016353,90.561202 -11.10733,26.541018 15.78043,26.41596 10.25726,-30.10669 -5.91799,30.30099 34.519857,-23.89105 -11.733647,-29.260228 z"
     id="path11" />
  <path
     style="fill:#000000;fill-opacity:1;stroke:#000000;stroke-width:2.14437;stroke-miterlimit:2;paint-order:markers fill stroke"
     d="m 81.341003,61.165332 c -5.27746,0.12238 -9.10606,9.72578 -10.7456,14.71848 h 22.641 c -1.97877,-5.15434 -6.42144,-14.84537 -11.8954,-14.71848 z"
     id="rect17" />
  <rect
     style="display:none;fill:#ffffff;fill-opacity:1;stroke:#ffffff;stroke-width:1.68139;stroke-miterlimit:2;paint-order:markers fill stroke"
     id="rect9"
     width="48.973007"
     height="11.767447"
     x="57.56712"
     y="77.471275"
     ry="5.8837233" />
  <rect
     style="fill:#000000;fill-opacity:1;stroke:#000000;stroke-width:1.68139;stroke-miterlimit:2;paint-order:markers fill stroke"
     id="rect18"
     width="38.832767"
     height="5.8232698"
     x="62.637249"
     y="80.443382"
     ry="2.9116349" />
  <path
     d="m 77.031333,48.025242 c -1.35287,-0.0289 -2.72054,0.33138 -3.7867,1.08775 -2.13232,1.51279 -2.22736,4.01993 -0.21315,5.6214 l 1.75729,1.39721 7.80366,-5.37724 -1.86303,-1.48124 c -1.00711,-0.80074 -2.3452,-1.21894 -3.69807,-1.24788 z"
     style="display:inline;fill:#000000;fill-opacity:1;stroke:#000000;stroke-width:0.279355;stroke-miterlimit:2;stroke-opacity:1;paint-order:markers fill stroke"
     id="path15-8" />
  <path
     d="m 82.592433,50.754362 7.27235,5.78209 2.27484,-1.5675 c 2.16139,-1.48933 2.30496,-3.99518 0.32192,-5.61847 -1.98302,-1.62329 -5.31946,-1.73112 -7.48085,-0.24178 z"
     style="display:inline;fill:#000000;fill-opacity:1;stroke:#000000;stroke-width:0.279355;stroke-miterlimit:2;stroke-opacity:1;paint-order:markers fill stroke"
     id="path17-6" />
  <path
     d="m 82.592433,50.754362 -7.80366,5.37724 7.27232,5.78208 7.80369,-5.37723 z"
     style="display:inline;fill:#000000;fill-opacity:1;stroke:#000000;stroke-width:0.279355;stroke-miterlimit:2;stroke-opacity:1;paint-order:markers fill stroke"
     id="path16-5" />
</svg>
