<?xml version="1.0" encoding="UTF-8" standalone="no"?>
<!-- Created with Inkscape (http://www.inkscape.org/) -->

<svg
   width="109.16353mm"
   height="165.37148mm"
   viewBox="0 0 109.16353 165.37148"
   version="1.1"
   id="svg1"
   inkscape:version="1.4 (86a8ad7, 2024-10-11)"
   sodipodi:docname="icono pastel.svg"
   xml:space="preserve"
   xmlns:inkscape="http://www.inkscape.org/namespaces/inkscape"
   xmlns:sodipodi="http://sodipodi.sourceforge.net/DTD/sodipodi-0.dtd"
   xmlns="http://www.w3.org/2000/svg"
   xmlns:svg="http://www.w3.org/2000/svg"><sodipodi:namedview
     id="namedview1"
     pagecolor="#ffffff"
     bordercolor="#000000"
     borderopacity="0.25"
     inkscape:showpageshadow="2"
     inkscape:pageopacity="0.0"
     inkscape:pagecheckerboard="0"
     inkscape:deskcolor="#d1d1d1"
     inkscape:document-units="mm"
     inkscape:zoom="0.74223607"
     inkscape:cx="375.21755"
     inkscape:cy="434.49788"
     inkscape:window-width="1366"
     inkscape:window-height="705"
     inkscape:window-x="-8"
     inkscape:window-y="-8"
     inkscape:window-maximized="1"
     inkscape:current-layer="layer2" /><defs
     id="defs1" /><g
     inkscape:label="pastel"
     inkscape:groupmode="layer"
     id="layer1"
     style="display:none"
     transform="translate(-45.508336,-30.427093)"><rect
       style="fill:none;stroke:#000000;stroke-width:1.94686;stroke-miterlimit:2;stroke-opacity:1;paint-order:markers fill stroke"
       id="rect2"
       width="88.471886"
       height="33.944378"
       x="25.682627"
       y="174.78355"
       ry="5.8919687" /><rect
       style="fill:none;stroke:#000000;stroke-width:1.65335;stroke-miterlimit:2;stroke-opacity:1;paint-order:markers fill stroke"
       id="rect2-0"
       width="63.264236"
       height="34.23542"
       x="39.343784"
       y="139.78995"
       ry="5.9424872" /><path
       id="rect3-8"
       style="fill:none;fill-opacity:1;stroke:#000000;stroke-width:1.14752;stroke-miterlimit:2;paint-order:markers fill stroke"
       d="m 29.744426,175.89661 h 79.409254 c 2.66891,0 4.81753,1.08298 4.81753,2.42822 v 3.47759 c 0,1.34523 -2.58511,2.63834 -4.81753,2.42822 -5.41622,-0.50978 -6.68242,-7.62032 -6.68242,-7.62032 0,0 -1.25806,7.40625 -6.713624,7.53308 -5.71897,0.13294 -8.44999,-7.53676 -8.44999,-7.53676 0,0 -2.30162,7.38988 -7.88504,7.45107 -5.73081,0.0628 -8.74499,-7.46327 -8.74499,-7.46327 0,0 -2.04503,7.35248 -7.58527,7.46129 -5.74822,0.11289 -9.04122,-7.40931 -9.04122,-7.40931 0,0 -1.96778,7.10592 -7.32966,7.22617 -5.62952,0.12625 -9.00194,-7.21238 -9.00194,-7.21238 0,0 -2.36909,7.14732 -7.9751,7.57043 -2.24597,0.16951 -4.817521,-1.08299 -4.817521,-2.42822 v -3.47759 c 0,-1.34524 2.148611,-2.42822 4.817521,-2.42822 z"
       sodipodi:nodetypes="ssssacacacacacasss" /><path
       id="rect3-8-4"
       style="fill:none;fill-opacity:1;stroke:#000000;stroke-width:0.892272;stroke-miterlimit:2;paint-order:markers fill stroke"
       d="m 43.557803,140.86061 h 56.08589 c 1.885017,0 3.402567,0.92706 3.402567,2.07861 v 2.97691 c 0,1.15155 -1.82584,2.25848 -3.402567,2.07861 -3.82542,-0.43638 -4.71971,-6.52319 -4.71971,-6.52319 0,0 -0.88856,6.33994 -4.74177,6.44851 -4.03925,0.1138 -5.96812,-6.45165 -5.96812,-6.45165 0,0 -1.62562,6.32593 -5.56913,6.3783 -4.04762,0.0538 -6.17648,-6.38874 -6.17648,-6.38874 0,0 -1.44439,6.2939 -5.3574,6.38705 -4.05991,0.0966 -6.38571,-6.34255 -6.38571,-6.34255 0,0 -1.38983,6.08283 -5.17687,6.18577 -3.97606,0.10808 -6.35796,-6.17397 -6.35796,-6.17397 0,0 -1.67327,6.11828 -5.63274,6.48047 -1.586292,0.14511 -3.402559,-0.92706 -3.402559,-2.07861 v -2.97691 c 0,-1.15155 1.517544,-2.07861 3.402559,-2.07861 z"
       sodipodi:nodetypes="ssssacacacacacasss" /><path
       sodipodi:type="spiral"
       style="display:none;fill:#000000;fill-opacity:1;fill-rule:evenodd;stroke:#000000;stroke-width:0.264583"
       id="path9-7-3-1-8"
       sodipodi:cx="146.02724"
       sodipodi:cy="92.552483"
       sodipodi:expansion="1"
       sodipodi:revolution="3"
       sodipodi:radius="16.461807"
       sodipodi:argument="-17.026205"
       sodipodi:t0="0"
       d="m 146.02724,92.552483 c -0.20624,0.799185 -1.17904,0.11628 -1.3283,-0.342788 -0.40449,-1.244045 0.9002,-2.251811 2.01387,-2.313811 1.9921,-0.110904 3.37982,1.833475 3.29933,3.684961 -0.11814,2.717128 -2.77535,4.530022 -5.35605,4.284835 -3.43967,-0.326794 -5.68901,-3.719741 -5.27035,-7.027134 0.52683,-4.162016 4.66521,-6.852389 8.69822,-6.25586 4.88452,0.722477 8.0183,5.611247 7.24137,10.369308 -0.91558,5.607206 -6.55764,9.185796 -12.04039,8.226886 -6.33006,-1.1071 -10.35434,-7.504279 -9.2124,-13.711483 1.29755,-7.05302 8.45108,-11.52363 15.38257,-10.197909 7.77608,1.487258 12.69345,9.398006 11.18342,17.053655 -1.67642,8.499217 -10.34502,13.863687 -18.72474,12.168937"
       transform="matrix(-0.22339346,-0.16102168,0.14131205,-0.19578312,97.638983,199.98352)" /><path
       sodipodi:type="spiral"
       style="display:none;fill:#000000;fill-opacity:1;fill-rule:evenodd;stroke:#000000;stroke-width:0.264583"
       id="path10-6-1-9-26"
       sodipodi:cx="141.39961"
       sodipodi:cy="89.4674"
       sodipodi:expansion="1"
       sodipodi:revolution="3"
       sodipodi:radius="23.138121"
       sodipodi:argument="-17.92226"
       sodipodi:t0="0"
       d="m 141.39961,89.4674 c 0.69607,0.928087 -0.90763,1.396166 -1.54254,1.156905 -1.72057,-0.648384 -1.68108,-2.965226 -0.77127,-4.241989 1.62744,-2.28383 4.98,-2.099678 6.94144,-0.385633 2.87849,2.515431 2.53508,7.023696 -1e-5,9.640884 -3.37887,3.4883 -9.07786,2.977912 -12.34033,-0.38564 -4.10548,-4.232688 -3.42463,-11.137081 0.77128,-15.039779 5.08181,-4.72669 13.19915,-3.873623 17.73923,1.156914 5.35032,5.928314 4.32403,15.262989 -1.54255,20.438668 -6.77321,5.97554 -17.32802,4.7754 -23.13812,-1.928182 -6.60181,-7.617037 -5.22743,-19.393885 2.31382,-25.837567 8.46014,-7.228838 21.46036,-5.679929 28.53701,2.699459 7.85643,9.302709 6.1328,23.52729 -3.08509,31.23646"
       transform="matrix(-0.22339346,-0.16102168,0.14131205,-0.19578312,97.638983,199.98352)" /><path
       sodipodi:type="spiral"
       style="display:none;fill:#000000;fill-opacity:1;fill-rule:evenodd;stroke:#000000;stroke-width:0.264583"
       id="path9-7-3-1-0-6"
       sodipodi:cx="146.02724"
       sodipodi:cy="92.552483"
       sodipodi:expansion="1"
       sodipodi:revolution="3"
       sodipodi:radius="16.461807"
       sodipodi:argument="-17.026205"
       sodipodi:t0="0"
       d="m 146.02724,92.552483 c -0.20624,0.799185 -1.17904,0.11628 -1.3283,-0.342788 -0.40449,-1.244045 0.9002,-2.251811 2.01387,-2.313811 1.9921,-0.110904 3.37982,1.833475 3.29933,3.684961 -0.11814,2.717128 -2.77535,4.530022 -5.35605,4.284835 -3.43967,-0.326794 -5.68901,-3.719741 -5.27035,-7.027134 0.52683,-4.162016 4.66521,-6.852389 8.69822,-6.25586 4.88452,0.722477 8.0183,5.611247 7.24137,10.369308 -0.91558,5.607206 -6.55764,9.185796 -12.04039,8.226886 -6.33006,-1.1071 -10.35434,-7.504279 -9.2124,-13.711483 1.29755,-7.05302 8.45108,-11.52363 15.38257,-10.197909 7.77608,1.487258 12.69345,9.398006 11.18342,17.053655 -1.67642,8.499217 -10.34502,13.863687 -18.72474,12.168937"
       transform="matrix(-0.27554386,-0.19603277,0.19617617,-0.26870113,110.32231,216.97957)" /><path
       sodipodi:type="spiral"
       style="display:none;fill:#000000;fill-opacity:1;fill-rule:evenodd;stroke:#000000;stroke-width:0.264583"
       id="path10-6-1-9-2-0"
       sodipodi:cx="141.39961"
       sodipodi:cy="89.4674"
       sodipodi:expansion="1"
       sodipodi:revolution="3"
       sodipodi:radius="23.138121"
       sodipodi:argument="-17.92226"
       sodipodi:t0="0"
       d="m 141.39961,89.4674 c 0.69607,0.928087 -0.90763,1.396166 -1.54254,1.156905 -1.72057,-0.648384 -1.68108,-2.965226 -0.77127,-4.241989 1.62744,-2.28383 4.98,-2.099678 6.94144,-0.385633 2.87849,2.515431 2.53508,7.023696 -1e-5,9.640884 -3.37887,3.4883 -9.07786,2.977912 -12.34033,-0.38564 -4.10548,-4.232688 -3.42463,-11.137081 0.77128,-15.039779 5.08181,-4.72669 13.19915,-3.873623 17.73923,1.156914 5.35032,5.928314 4.32403,15.262989 -1.54255,20.438668 -6.77321,5.97554 -17.32802,4.7754 -23.13812,-1.928182 -6.60181,-7.617037 -5.22743,-19.393885 2.31382,-25.837567 8.46014,-7.228838 21.46036,-5.679929 28.53701,2.699459 7.85643,9.302709 6.1328,23.52729 -3.08509,31.23646"
       transform="matrix(-0.27554386,-0.19603277,0.19617617,-0.26870113,110.32231,216.97957)" /><path
       sodipodi:type="spiral"
       style="display:none;fill:#000000;fill-opacity:1;fill-rule:evenodd;stroke:#000000;stroke-width:0.264583"
       id="path9-7-3-1-2-3"
       sodipodi:cx="146.02724"
       sodipodi:cy="92.552483"
       sodipodi:expansion="1"
       sodipodi:revolution="3"
       sodipodi:radius="16.461807"
       sodipodi:argument="-17.026205"
       sodipodi:t0="0"
       d="m 146.02724,92.552483 c -0.20624,0.799185 -1.17904,0.11628 -1.3283,-0.342788 -0.40449,-1.244045 0.9002,-2.251811 2.01387,-2.313811 1.9921,-0.110904 3.37982,1.833475 3.29933,3.684961 -0.11814,2.717128 -2.77535,4.530022 -5.35605,4.284835 -3.43967,-0.326794 -5.68901,-3.719741 -5.27035,-7.027134 0.52683,-4.162016 4.66521,-6.852389 8.69822,-6.25586 4.88452,0.722477 8.0183,5.611247 7.24137,10.369308 -0.91558,5.607206 -6.55764,9.185796 -12.04039,8.226886 -6.33006,-1.1071 -10.35434,-7.504279 -9.2124,-13.711483 1.29755,-7.05302 8.45108,-11.52363 15.38257,-10.197909 7.77608,1.487258 12.69345,9.398006 11.18342,17.053655 -1.67642,8.499217 -10.34502,13.863687 -18.72474,12.168937"
       transform="matrix(-0.22339346,-0.16102168,0.14131205,-0.19578312,104.20845,195.28775)" /><path
       sodipodi:type="spiral"
       style="display:none;fill:#000000;fill-opacity:1;fill-rule:evenodd;stroke:#000000;stroke-width:0.264583"
       id="path10-6-1-9-4-8"
       sodipodi:cx="141.39961"
       sodipodi:cy="89.4674"
       sodipodi:expansion="1"
       sodipodi:revolution="3"
       sodipodi:radius="23.138121"
       sodipodi:argument="-17.92226"
       sodipodi:t0="0"
       d="m 141.39961,89.4674 c 0.69607,0.928087 -0.90763,1.396166 -1.54254,1.156905 -1.72057,-0.648384 -1.68108,-2.965226 -0.77127,-4.241989 1.62744,-2.28383 4.98,-2.099678 6.94144,-0.385633 2.87849,2.515431 2.53508,7.023696 -1e-5,9.640884 -3.37887,3.4883 -9.07786,2.977912 -12.34033,-0.38564 -4.10548,-4.232688 -3.42463,-11.137081 0.77128,-15.039779 5.08181,-4.72669 13.19915,-3.873623 17.73923,1.156914 5.35032,5.928314 4.32403,15.262989 -1.54255,20.438668 -6.77321,5.97554 -17.32802,4.7754 -23.13812,-1.928182 -6.60181,-7.617037 -5.22743,-19.393885 2.31382,-25.837567 8.46014,-7.228838 21.46036,-5.679929 28.53701,2.699459 7.85643,9.302709 6.1328,23.52729 -3.08509,31.23646"
       transform="matrix(-0.22339346,-0.16102168,0.14131205,-0.19578312,104.20845,195.28775)" /><path
       sodipodi:type="spiral"
       style="display:none;fill:#000000;fill-opacity:1;fill-rule:evenodd;stroke:#000000;stroke-width:0.264583"
       id="path9-7-3-3-0"
       sodipodi:cx="146.02724"
       sodipodi:cy="92.552483"
       sodipodi:expansion="1"
       sodipodi:revolution="3"
       sodipodi:radius="16.461807"
       sodipodi:argument="-17.026205"
       sodipodi:t0="0"
       d="m 146.02724,92.552483 c -0.20624,0.799185 -1.17904,0.11628 -1.3283,-0.342788 -0.40449,-1.244045 0.9002,-2.251811 2.01387,-2.313811 1.9921,-0.110904 3.37982,1.833475 3.29933,3.684961 -0.11814,2.717128 -2.77535,4.530022 -5.35605,4.284835 -3.43967,-0.326794 -5.68901,-3.719741 -5.27035,-7.027134 0.52683,-4.162016 4.66521,-6.852389 8.69822,-6.25586 4.88452,0.722477 8.0183,5.611247 7.24137,10.369308 -0.91558,5.607206 -6.55764,9.185796 -12.04039,8.226886 -6.33006,-1.1071 -10.35434,-7.504279 -9.2124,-13.711483 1.29755,-7.05302 8.45108,-11.52363 15.38257,-10.197909 7.77608,1.487258 12.69345,9.398006 11.18342,17.053655 -1.67642,8.499217 -10.34502,13.863687 -18.72474,12.168937"
       transform="matrix(-0.22299473,-0.15822281,0.16236341,-0.22193557,111.37523,198.09164)" /><path
       sodipodi:type="spiral"
       style="display:none;fill:#000000;fill-opacity:1;fill-rule:evenodd;stroke:#000000;stroke-width:0.264583"
       id="path10-6-1-6-1"
       sodipodi:cx="141.39961"
       sodipodi:cy="89.4674"
       sodipodi:expansion="1"
       sodipodi:revolution="3"
       sodipodi:radius="23.138121"
       sodipodi:argument="-17.92226"
       sodipodi:t0="0"
       d="m 141.39961,89.4674 c 0.69607,0.928087 -0.90763,1.396166 -1.54254,1.156905 -1.72057,-0.648384 -1.68108,-2.965226 -0.77127,-4.241989 1.62744,-2.28383 4.98,-2.099678 6.94144,-0.385633 2.87849,2.515431 2.53508,7.023696 -1e-5,9.640884 -3.37887,3.4883 -9.07786,2.977912 -12.34033,-0.38564 -4.10548,-4.232688 -3.42463,-11.137081 0.77128,-15.039779 5.08181,-4.72669 13.19915,-3.873623 17.73923,1.156914 5.35032,5.928314 4.32403,15.262989 -1.54255,20.438668 -6.77321,5.97554 -17.32802,4.7754 -23.13812,-1.928182 -6.60181,-7.617037 -5.22743,-19.393885 2.31382,-25.837567 8.46014,-7.228838 21.46036,-5.679929 28.53701,2.699459 7.85643,9.302709 6.1328,23.52729 -3.08509,31.23646"
       transform="matrix(-0.22299473,-0.15822281,0.16236341,-0.22193557,111.37523,198.09164)" /><path
       sodipodi:type="spiral"
       style="display:none;fill:#000000;fill-opacity:1;fill-rule:evenodd;stroke:#000000;stroke-width:0.264583"
       id="path9-7-3-1-7"
       sodipodi:cx="146.02724"
       sodipodi:cy="92.552483"
       sodipodi:expansion="1"
       sodipodi:revolution="3"
       sodipodi:radius="16.461807"
       sodipodi:argument="-17.026205"
       sodipodi:t0="0"
       d="m 146.02724,92.552483 c -0.20624,0.799185 -1.17904,0.11628 -1.3283,-0.342788 -0.40449,-1.244045 0.9002,-2.251811 2.01387,-2.313811 1.9921,-0.110904 3.37982,1.833475 3.29933,3.684961 -0.11814,2.717128 -2.77535,4.530022 -5.35605,4.284835 -3.43967,-0.326794 -5.68901,-3.719741 -5.27035,-7.027134 0.52683,-4.162016 4.66521,-6.852389 8.69822,-6.25586 4.88452,0.722477 8.0183,5.611247 7.24137,10.369308 -0.91558,5.607206 -6.55764,9.185796 -12.04039,8.226886 -6.33006,-1.1071 -10.35434,-7.504279 -9.2124,-13.711483 1.29755,-7.05302 8.45108,-11.52363 15.38257,-10.197909 7.77608,1.487258 12.69345,9.398006 11.18342,17.053655 -1.67642,8.499217 -10.34502,13.863687 -18.72474,12.168937"
       transform="matrix(-0.28118837,-0.11813429,0.12260466,-0.18831477,87.131315,232.34187)" /><path
       sodipodi:type="spiral"
       style="display:none;fill:#000000;fill-opacity:1;fill-rule:evenodd;stroke:#000000;stroke-width:0.264583"
       id="path10-6-1-9-1"
       sodipodi:cx="141.39961"
       sodipodi:cy="89.4674"
       sodipodi:expansion="1"
       sodipodi:revolution="3"
       sodipodi:radius="23.138121"
       sodipodi:argument="-17.92226"
       sodipodi:t0="0"
       d="m 141.39961,89.4674 c 0.69607,0.928087 -0.90763,1.396166 -1.54254,1.156905 -1.72057,-0.648384 -1.68108,-2.965226 -0.77127,-4.241989 1.62744,-2.28383 4.98,-2.099678 6.94144,-0.385633 2.87849,2.515431 2.53508,7.023696 -1e-5,9.640884 -3.37887,3.4883 -9.07786,2.977912 -12.34033,-0.38564 -4.10548,-4.232688 -3.42463,-11.137081 0.77128,-15.039779 5.08181,-4.72669 13.19915,-3.873623 17.73923,1.156914 5.35032,5.928314 4.32403,15.262989 -1.54255,20.438668 -6.77321,5.97554 -17.32802,4.7754 -23.13812,-1.928182 -6.60181,-7.617037 -5.22743,-19.393885 2.31382,-25.837567 8.46014,-7.228838 21.46036,-5.679929 28.53701,2.699459 7.85643,9.302709 6.1328,23.52729 -3.08509,31.23646"
       transform="matrix(-0.28118837,-0.11813429,0.12260466,-0.18831477,87.131315,232.34187)" /><path
       sodipodi:type="spiral"
       style="display:none;fill:#000000;fill-opacity:1;fill-rule:evenodd;stroke:#000000;stroke-width:0.264583"
       id="path10-6-1-9-2-7"
       sodipodi:cx="141.39961"
       sodipodi:cy="89.4674"
       sodipodi:expansion="1"
       sodipodi:revolution="3"
       sodipodi:radius="23.138121"
       sodipodi:argument="-17.92226"
       sodipodi:t0="0"
       d="m 141.39961,89.4674 c 0.69607,0.928087 -0.90763,1.396166 -1.54254,1.156905 -1.72057,-0.648384 -1.68108,-2.965226 -0.77127,-4.241989 1.62744,-2.28383 4.98,-2.099678 6.94144,-0.385633 2.87849,2.515431 2.53508,7.023696 -1e-5,9.640884 -3.37887,3.4883 -9.07786,2.977912 -12.34033,-0.38564 -4.10548,-4.232688 -3.42463,-11.137081 0.77128,-15.039779 5.08181,-4.72669 13.19915,-3.873623 17.73923,1.156914 5.35032,5.928314 4.32403,15.262989 -1.54255,20.438668 -6.77321,5.97554 -17.32802,4.7754 -23.13812,-1.928182 -6.60181,-7.617037 -5.22743,-19.393885 2.31382,-25.837567 8.46014,-7.228838 21.46036,-5.679929 28.53701,2.699459 7.85643,9.302709 6.1328,23.52729 -3.08509,31.23646"
       transform="matrix(-0.34635192,-0.14343323,0.17078024,-0.2586929,104.55421,245.99002)" /><path
       sodipodi:type="spiral"
       style="display:none;fill:#000000;fill-opacity:1;fill-rule:evenodd;stroke:#000000;stroke-width:0.264583"
       id="path9-7-3-1-2-73"
       sodipodi:cx="146.02724"
       sodipodi:cy="92.552483"
       sodipodi:expansion="1"
       sodipodi:revolution="3"
       sodipodi:radius="16.461807"
       sodipodi:argument="-17.026205"
       sodipodi:t0="0"
       d="m 146.02724,92.552483 c -0.20624,0.799185 -1.17904,0.11628 -1.3283,-0.342788 -0.40449,-1.244045 0.9002,-2.251811 2.01387,-2.313811 1.9921,-0.110904 3.37982,1.833475 3.29933,3.684961 -0.11814,2.717128 -2.77535,4.530022 -5.35605,4.284835 -3.43967,-0.326794 -5.68901,-3.719741 -5.27035,-7.027134 0.52683,-4.162016 4.66521,-6.852389 8.69822,-6.25586 4.88452,0.722477 8.0183,5.611247 7.24137,10.369308 -0.91558,5.607206 -6.55764,9.185796 -12.04039,8.226886 -6.33006,-1.1071 -10.35434,-7.504279 -9.2124,-13.711483 1.29755,-7.05302 8.45108,-11.52363 15.38257,-10.197909 7.77608,1.487258 12.69345,9.398006 11.18342,17.053655 -1.67642,8.499217 -10.34502,13.863687 -18.72474,12.168937"
       transform="matrix(-0.28118837,-0.11813429,0.12260466,-0.18831477,93.649169,227.48114)" /><path
       sodipodi:type="spiral"
       style="display:none;fill:#000000;fill-opacity:1;fill-rule:evenodd;stroke:#000000;stroke-width:0.264583"
       id="path10-6-1-9-4-3"
       sodipodi:cx="141.39961"
       sodipodi:cy="89.4674"
       sodipodi:expansion="1"
       sodipodi:revolution="3"
       sodipodi:radius="23.138121"
       sodipodi:argument="-17.92226"
       sodipodi:t0="0"
       d="m 141.39961,89.4674 c 0.69607,0.928087 -0.90763,1.396166 -1.54254,1.156905 -1.72057,-0.648384 -1.68108,-2.965226 -0.77127,-4.241989 1.62744,-2.28383 4.98,-2.099678 6.94144,-0.385633 2.87849,2.515431 2.53508,7.023696 -1e-5,9.640884 -3.37887,3.4883 -9.07786,2.977912 -12.34033,-0.38564 -4.10548,-4.232688 -3.42463,-11.137081 0.77128,-15.039779 5.08181,-4.72669 13.19915,-3.873623 17.73923,1.156914 5.35032,5.928314 4.32403,15.262989 -1.54255,20.438668 -6.77321,5.97554 -17.32802,4.7754 -23.13812,-1.928182 -6.60181,-7.617037 -5.22743,-19.393885 2.31382,-25.837567 8.46014,-7.228838 21.46036,-5.679929 28.53701,2.699459 7.85643,9.302709 6.1328,23.52729 -3.08509,31.23646"
       transform="matrix(-0.28118837,-0.11813429,0.12260466,-0.18831477,93.649169,227.48114)" /><path
       sodipodi:type="spiral"
       style="display:none;fill:#000000;fill-opacity:1;fill-rule:evenodd;stroke:#000000;stroke-width:0.264583"
       id="path9-7-3-3-5"
       sodipodi:cx="146.02724"
       sodipodi:cy="92.552483"
       sodipodi:expansion="1"
       sodipodi:revolution="3"
       sodipodi:radius="16.461807"
       sodipodi:argument="-17.026205"
       sodipodi:t0="0"
       d="m 146.02724,92.552483 c -0.20624,0.799185 -1.17904,0.11628 -1.3283,-0.342788 -0.40449,-1.244045 0.9002,-2.251811 2.01387,-2.313811 1.9921,-0.110904 3.37982,1.833475 3.29933,3.684961 -0.11814,2.717128 -2.77535,4.530022 -5.35605,4.284835 -3.43967,-0.326794 -5.68901,-3.719741 -5.27035,-7.027134 0.52683,-4.162016 4.66521,-6.852389 8.69822,-6.25586 4.88452,0.722477 8.0183,5.611247 7.24137,10.369308 -0.91558,5.607206 -6.55764,9.185796 -12.04039,8.226886 -6.33006,-1.1071 -10.35434,-7.504279 -9.2124,-13.711483 1.29755,-7.05302 8.45108,-11.52363 15.38257,-10.197909 7.77608,1.487258 12.69345,9.398006 11.18342,17.053655 -1.67642,8.499217 -10.34502,13.863687 -18.72474,12.168937"
       transform="matrix(-0.28022013,-0.1157039,0.14142872,-0.21370494,102.23144,229.1837)" /><path
       sodipodi:type="spiral"
       style="display:none;fill:#000000;fill-opacity:1;fill-rule:evenodd;stroke:#000000;stroke-width:0.264583"
       id="path10-6-1-6-9"
       sodipodi:cx="141.39961"
       sodipodi:cy="89.4674"
       sodipodi:expansion="1"
       sodipodi:revolution="3"
       sodipodi:radius="23.138121"
       sodipodi:argument="-17.92226"
       sodipodi:t0="0"
       d="m 141.39961,89.4674 c 0.69607,0.928087 -0.90763,1.396166 -1.54254,1.156905 -1.72057,-0.648384 -1.68108,-2.965226 -0.77127,-4.241989 1.62744,-2.28383 4.98,-2.099678 6.94144,-0.385633 2.87849,2.515431 2.53508,7.023696 -1e-5,9.640884 -3.37887,3.4883 -9.07786,2.977912 -12.34033,-0.38564 -4.10548,-4.232688 -3.42463,-11.137081 0.77128,-15.039779 5.08181,-4.72669 13.19915,-3.873623 17.73923,1.156914 5.35032,5.928314 4.32403,15.262989 -1.54255,20.438668 -6.77321,5.97554 -17.32802,4.7754 -23.13812,-1.928182 -6.60181,-7.617037 -5.22743,-19.393885 2.31382,-25.837567 8.46014,-7.228838 21.46036,-5.679929 28.53701,2.699459 7.85643,9.302709 6.1328,23.52729 -3.08509,31.23646"
       transform="matrix(-0.28022013,-0.1157039,0.14142872,-0.21370494,101.70227,229.1837)" /><path
       d="m 70.322329,94.510429 c -0.394997,-0.0176 -0.787146,0.132987 -1.084058,0.455846 -0.593857,0.645702 -0.575348,1.728706 0.04143,2.428259 l 0.538149,0.610327 2.176253,-2.294331 -0.570522,-0.64703 c -0.308423,-0.349789 -0.706292,-0.535499 -1.101296,-0.553071 z"
       style="display:inline;fill:#000000;fill-opacity:1;stroke:#000000;stroke-width:0.0991317;stroke-miterlimit:2;stroke-opacity:1;paint-order:markers fill stroke"
       id="path15-9"
       inkscape:transform-center-x="-31.866603"
       inkscape:transform-center-y="35.485327" /><path
       d="m 71.994147,95.71053 2.227056,2.525717 0.634398,-0.66881 c 0.602762,-0.635458 0.59843,-1.71772 -0.0097,-2.426585 -0.608128,-0.708857 -1.582953,-0.76795 -2.185707,-0.132485 z"
       style="display:inline;fill:#000000;fill-opacity:1;stroke:#000000;stroke-width:0.0991317;stroke-miterlimit:2;stroke-opacity:1;paint-order:markers fill stroke"
       id="path17-4"
       inkscape:transform-center-x="-35.116691"
       inkscape:transform-center-y="35.630462" /><path
       d="m 71.994147,95.71053 -2.176253,2.294331 2.227041,2.525719 2.176268,-2.294333 z"
       style="display:inline;fill:#000000;fill-opacity:1;stroke:#000000;stroke-width:0.0991317;stroke-miterlimit:2;stroke-opacity:1;paint-order:markers fill stroke"
       id="path16-7"
       inkscape:transform-center-x="-33.48674"
       inkscape:transform-center-y="37.348926" /><path
       d="m 71.614406,186.37017 c -1.033294,0.0401 -2.057592,0.42568 -2.831271,1.14754 -1.54741,1.44366 -1.489241,3.66917 0.130376,4.98995 l 1.41303,1.15229 5.671342,-5.14243 -1.498056,-1.22161 c -0.809822,-0.6604 -1.85212,-0.96583 -2.885421,-0.92574 z"
       style="display:inline;fill:#000000;fill-opacity:1;stroke:#000000;stroke-width:0.230044;stroke-miterlimit:2;stroke-opacity:1;paint-order:markers fill stroke"
       id="path15-1" /><path
       d="m 75.997883,188.51752 5.847651,4.7686 1.653254,-1.49905 c 1.570789,-1.42429 1.549706,-3.65102 -0.04728,-4.99263 -1.596959,-1.34161 -4.147156,-1.27503 -5.717964,0.14926 z"
       style="display:inline;fill:#000000;fill-opacity:1;stroke:#000000;stroke-width:0.230044;stroke-miterlimit:2;stroke-opacity:1;paint-order:markers fill stroke"
       id="path17-2" /><path
       d="m 75.997883,188.51752 -5.671342,5.14243 5.847643,4.76861 5.67135,-5.14244 z"
       style="display:inline;fill:#000000;fill-opacity:1;stroke:#000000;stroke-width:0.230044;stroke-miterlimit:2;stroke-opacity:1;paint-order:markers fill stroke"
       id="path16-0" /><path
       d="m 59.388421,193.96584 c -1.052012,-0.0273 -2.115532,0.31411 -2.94459,1.03106 -1.658125,1.43396 -1.732035,3.81044 -0.165752,5.32847 l 1.366494,1.3244 6.068244,-5.09704 -1.44872,-1.40404 c -0.783147,-0.75902 -1.823665,-1.15543 -2.875676,-1.18285 z"
       style="display:inline;fill:#000000;fill-opacity:1;stroke:#000000;stroke-width:0.239838;stroke-miterlimit:2;stroke-opacity:1;paint-order:markers fill stroke"
       id="path15-4-1" /><path
       d="m 63.712817,196.55273 5.655077,5.48079 1.76894,-1.48582 c 1.680716,-1.41171 1.792358,-3.78698 0.250319,-5.32568 -1.542005,-1.5387 -4.136464,-1.64091 -5.817196,-0.22918 z"
       style="display:inline;fill:#000000;fill-opacity:1;stroke:#000000;stroke-width:0.239838;stroke-miterlimit:2;stroke-opacity:1;paint-order:markers fill stroke"
       id="path17-9-6" /><path
       d="m 89.840101,149.7819 c -0.698784,-0.0215 -1.328975,0.32491 -1.727202,1.04433 -0.796453,1.43894 -0.354577,3.80886 0.990727,5.31377 l 1.173706,1.31295 2.945919,-5.11565 -1.244322,-1.39191 c -0.672663,-0.75247 -1.440035,-1.14195 -2.138828,-1.16349 z"
       style="display:inline;fill:#000000;fill-opacity:1;stroke:#000000;stroke-width:0.19456;stroke-miterlimit:2;stroke-opacity:1;paint-order:markers fill stroke"
       id="path15-8" /><path
       d="m 93.223251,152.3373 4.857233,5.43343 0.858764,-1.49125 c 0.815945,-1.41687 0.399198,-3.78579 -0.934422,-5.31145 -1.333588,-1.52565 -3.064058,-1.61321 -3.880003,-0.19634 z"
       style="display:inline;fill:#000000;fill-opacity:1;stroke:#000000;stroke-width:0.19456;stroke-miterlimit:2;stroke-opacity:1;paint-order:markers fill stroke"
       id="path17-98" /><path
       d="m 93.223251,152.3373 -2.945919,5.11565 4.857228,5.43342 2.945924,-5.11564 z"
       style="display:inline;fill:#000000;fill-opacity:1;stroke:#000000;stroke-width:0.19456;stroke-miterlimit:2;stroke-opacity:1;paint-order:markers fill stroke"
       id="path16-4" /><path
       d="m 83.02374,158.25857 c -0.683619,-0.0301 -1.374718,0.34576 -1.913457,1.13494 -1.077486,1.57844 -1.125514,4.19435 -0.107709,5.86533 l 0.887976,1.45784 3.943277,-5.61059 -0.94141,-1.5455 c -0.508906,-0.83548 -1.185057,-1.27183 -1.868677,-1.30202 z"
       style="display:inline;fill:#000000;fill-opacity:1;stroke:#000000;stroke-width:0.202844;stroke-miterlimit:2;stroke-opacity:1;paint-order:markers fill stroke"
       id="path15-4-14" /><path
       d="m 85.833827,161.10609 3.674791,6.033 1.149495,-1.63552 c 1.092165,-1.55395 1.164713,-4.16853 0.162662,-5.86226 -1.002028,-1.69372 -2.687963,-1.80623 -3.780139,-0.25227 z"
       style="display:inline;fill:#000000;fill-opacity:1;stroke:#000000;stroke-width:0.202844;stroke-miterlimit:2;stroke-opacity:1;paint-order:markers fill stroke"
       id="path17-9-3" /><path
       d="m 85.833827,161.10609 -3.943277,5.61059 3.674785,6.03295 3.943283,-5.61054 z"
       style="display:inline;fill:#000000;fill-opacity:1;stroke:#000000;stroke-width:0.202844;stroke-miterlimit:2;stroke-opacity:1;paint-order:markers fill stroke"
       id="path16-6-9" /></g><g
     inkscape:groupmode="layer"
     id="layer3"
     inkscape:label="pastel 1"
     style="display:inline"
     transform="translate(-45.508336,-30.427093)"><rect
       style="display:inline;fill:none;stroke:#000000;stroke-width:1.81106;stroke-miterlimit:2;stroke-opacity:1;paint-order:markers fill stroke"
       id="rect1-8"
       width="107.24612"
       height="50.154045"
       x="46.413868"
       y="144.73898"
       ry="5.2456803" /><rect
       style="display:inline;fill:none;stroke:#000000;stroke-width:1.94686;stroke-miterlimit:2;stroke-opacity:1;paint-order:markers fill stroke"
       id="rect2-7"
       width="88.471886"
       height="33.944378"
       x="56.041451"
       y="110.75117"
       ry="5.8919687" /><rect
       style="display:inline;fill:none;stroke:#000000;stroke-width:1.65335;stroke-miterlimit:2;stroke-opacity:1;paint-order:markers fill stroke"
       id="rect2-0-7"
       width="63.264236"
       height="34.23542"
       x="69.702606"
       y="75.757561"
       ry="5.9424872" /><path
       id="rect3-83"
       style="display:inline;fill:none;fill-opacity:1;stroke:#000000;stroke-width:1.61156;stroke-miterlimit:2;paint-order:markers fill stroke"
       d="m 52.54353,146.09973 h 95.5272 c 3.21064,0 5.79536,1.77557 5.79536,3.98107 v 5.70152 c 0,2.20551 -3.10981,4.32555 -5.79536,3.98107 -6.51557,-0.83578 -8.03877,-12.49353 -8.03877,-12.49353 0,0 -1.51342,12.14256 -8.07632,12.35049 -6.87978,0.21796 -10.1651,-12.35651 -10.1651,-12.35651 0,0 -2.76882,12.11572 -9.48551,12.21602 -6.89402,0.10297 -10.51999,-12.23603 -10.51999,-12.23603 0,0 -2.460104,12.05441 -9.124839,12.2328 -6.914962,0.18508 -10.876346,-12.14757 -10.876346,-12.14757 0,0 -2.367195,11.65016 -8.817397,11.8473 -6.772157,0.20699 -10.829087,-11.8247 -10.829087,-11.8247 0,0 -2.849948,11.71803 -9.593841,12.41173 -2.701832,0.27792 -5.795352,-1.77556 -5.795352,-3.98107 v -5.70152 c 0,-2.2055 2.584728,-3.98107 5.795352,-3.98107 z"
       sodipodi:nodetypes="ssssacacacacacasss" /><path
       id="rect3-8-8"
       style="display:inline;fill:none;fill-opacity:1;stroke:#000000;stroke-width:1.14752;stroke-miterlimit:2;paint-order:markers fill stroke"
       d="m 61.177413,112.50314 h 78.526727 c 2.63924,0 4.76398,1.08299 4.76398,2.42824 v 3.47761 c 0,1.34524 -2.55638,2.63835 -4.76398,2.42823 -5.35603,-0.50978 -6.60816,-7.62036 -6.60816,-7.62036 0,0 -1.24407,7.40629 -6.63901,7.53312 -5.65541,0.13294 -8.35608,-7.5368 -8.35608,-7.5368 0,0 -2.27604,7.38992 -7.7974,7.45111 -5.66712,0.0628 -8.64782,-7.46331 -8.64782,-7.46331 0,0 -2.022314,7.35252 -7.50097,7.46133 -5.684329,0.11289 -8.940731,-7.40935 -8.940731,-7.40935 0,0 -1.94591,7.10596 -7.248198,7.22621 -5.566954,0.12625 -8.901893,-7.21242 -8.901893,-7.21242 0,0 -2.34276,7.14736 -7.886465,7.57047 -2.221008,0.16951 -4.763979,-1.08299 -4.763979,-2.42823 v -3.47761 c 0,-1.34525 2.124731,-2.42824 4.763979,-2.42824 z"
       sodipodi:nodetypes="ssssacacacacacasss" /><path
       id="rect3-8-4-3"
       style="display:inline;fill:none;fill-opacity:1;stroke:#000000;stroke-width:0.892272;stroke-miterlimit:2;paint-order:markers fill stroke"
       d="m 73.916624,76.828218 h 56.085906 c 1.88502,0 3.40257,0.92706 3.40257,2.07861 v 2.97691 c 0,1.15155 -1.82584,2.25848 -3.40257,2.07861 -3.82542,-0.43638 -4.71971,-6.52319 -4.71971,-6.52319 0,0 -0.88856,6.33994 -4.74177,6.44851 -4.03925,0.1138 -5.96812,-6.45165 -5.96812,-6.45165 0,0 -1.62562,6.32593 -5.56913,6.3783 -4.04762,0.0538 -6.17649,-6.38874 -6.17649,-6.38874 0,0 -1.4444,6.2939 -5.357405,6.38705 -4.059911,0.0966 -6.385711,-6.34255 -6.385711,-6.34255 0,0 -1.38983,6.08283 -5.17687,6.18577 -3.97606,0.10808 -6.35796,-6.17397 -6.35796,-6.17397 0,0 -1.67327,6.11828 -5.63274,6.48047 -1.586292,0.14511 -3.402559,-0.92706 -3.402559,-2.07861 v -2.97691 c 0,-1.15155 1.517544,-2.07861 3.402559,-2.07861 z"
       sodipodi:nodetypes="ssssacacacacacasss" /><path
       d="m 100.68114,30.478034 c -0.395,-0.0176 -0.787147,0.132987 -1.084057,0.455846 -0.593847,0.645703 -0.575337,1.728707 0.0414,2.42826 l 0.538147,0.610327 2.17627,-2.294331 -0.57053,-0.647031 c -0.30842,-0.349789 -0.70629,-0.535499 -1.1013,-0.553071 z"
       style="display:inline;fill:#000000;fill-opacity:1;stroke:#000000;stroke-width:0.0991317;stroke-miterlimit:2;stroke-opacity:1;paint-order:markers fill stroke"
       id="path15-9-5"
       inkscape:transform-center-x="-31.866603"
       inkscape:transform-center-y="35.485327" /><path
       d="m 102.35297,31.678136 2.22707,2.525717 0.6344,-0.66881 c 0.60276,-0.635458 0.59843,-1.71772 -0.01,-2.426586 -0.60813,-0.708857 -1.58296,-0.76795 -2.18572,-0.132485 z"
       style="display:inline;fill:#000000;fill-opacity:1;stroke:#000000;stroke-width:0.0991317;stroke-miterlimit:2;stroke-opacity:1;paint-order:markers fill stroke"
       id="path17-4-1"
       inkscape:transform-center-x="-35.116691"
       inkscape:transform-center-y="35.630462" /><path
       d="m 102.35297,31.678136 -2.17626,2.294331 2.22705,2.525721 2.17628,-2.294335 z"
       style="display:inline;fill:#000000;fill-opacity:1;stroke:#000000;stroke-width:0.0991317;stroke-miterlimit:2;stroke-opacity:1;paint-order:markers fill stroke"
       id="path16-7-0"
       inkscape:transform-center-x="-33.48674"
       inkscape:transform-center-y="37.348926" /><path
       id="rect3-83-3"
       style="display:inline;fill:none;fill-opacity:1;stroke:#000000;stroke-width:2.03506;stroke-miterlimit:2;paint-order:markers fill stroke"
       d="m 52.565892,145.41424 h 95.279258 c 3.20231,0 5.78033,2.8045 5.78033,6.28806 v 9.00553 c 0,3.48358 -3.10174,6.83218 -5.78033,6.28807 -6.49866,-1.3201 -8.01791,-19.73345 -8.01791,-19.73345 0,0 -1.50949,19.17909 -8.05535,19.50751 -6.86193,0.34427 -10.13872,-19.51702 -10.13872,-19.51702 0,0 -2.76162,19.13669 -9.46088,19.29512 -6.87614,0.16264 -10.4927,-19.32673 -10.4927,-19.32673 0,0 -2.453711,19.03985 -9.101148,19.32163 -6.897015,0.29233 -10.848118,-19.18701 -10.848118,-19.18701 0,0 -2.36105,18.40135 -8.794511,18.71274 -6.75458,0.32694 -10.800982,-18.67704 -10.800982,-18.67704 0,0 -2.842549,18.50855 -9.568939,19.60425 -2.694821,0.43897 -5.780311,-2.80449 -5.780311,-6.28807 v -9.00553 c 0,-3.48356 2.57802,-6.28806 5.780311,-6.28806 z"
       sodipodi:nodetypes="ssssacacacacacasss" /><path
       id="rect3-8-8-8"
       style="display:inline;fill:none;fill-opacity:1;stroke:#000000;stroke-width:1.57592;stroke-miterlimit:2;paint-order:markers fill stroke"
       d="M 61.610881,111.86428 H 139.6643 c 2.62334,0 4.73528,2.05242 4.73528,4.60183 v 6.59053 c 0,2.54943 -2.54098,5.00003 -4.73528,4.60184 -5.32374,-0.96612 -6.56832,-14.44162 -6.56832,-14.44162 0,0 -1.23659,14.03591 -6.599,14.27627 -5.62133,0.25194 -8.30572,-14.28324 -8.30572,-14.28324 0,0 -2.26232,14.00489 -7.75041,14.12085 -5.63296,0.11901 -8.59569,-14.14397 -8.59569,-14.14397 0,0 -2.010123,13.93401 -7.455759,14.14022 -5.650067,0.21394 -8.886842,-14.04171 -8.886842,-14.04171 0,0 -1.934181,13.46674 -7.20451,13.69463 -5.5334,0.23926 -8.848238,-13.6685 -8.848238,-13.6685 0,0 -2.328639,13.5452 -7.83893,14.34707 -2.207621,0.32125 -4.735264,-2.05241 -4.735264,-4.60184 v -6.59053 c 0,-2.54943 2.111925,-4.60183 4.735264,-4.60183 z"
       sodipodi:nodetypes="ssssacacacacacasss" /><path
       id="rect3-8-4-3-0"
       style="display:inline;fill:none;fill-opacity:1;stroke:#000000;stroke-width:1.03824;stroke-miterlimit:2;paint-order:markers fill stroke"
       d="M 73.603616,77.057276 H 129.5593 c 1.88064,0 3.39467,1.258118 3.39467,2.820893 v 4.039981 c 0,1.562774 -1.8216,3.064995 -3.39467,2.820892 -3.81654,-0.592213 -4.70875,-8.852656 -4.70875,-8.852656 0,0 -0.8865,8.603967 -4.73076,8.751308 -4.02988,0.154438 -5.95427,-8.755569 -5.95427,-8.755569 0,0 -1.62184,8.584953 -5.5562,8.656025 -4.03822,0.07301 -6.16215,-8.670193 -6.16215,-8.670193 0,0 -1.44104,8.541485 -5.344962,8.6679 -4.050484,0.131096 -6.370883,-8.607509 -6.370883,-8.607509 0,0 -1.386603,8.255041 -5.16485,8.394742 -3.966828,0.146675 -6.343197,-8.378728 -6.343197,-8.378728 0,0 -1.669385,8.30315 -5.619662,8.79468 -1.582609,0.19693 -3.394658,-1.258118 -3.394658,-2.820892 v -4.039981 c 0,-1.562775 1.51402,-2.820893 3.394658,-2.820893 z"
       sodipodi:nodetypes="ssssacacacacacasss" /></g><g
     inkscape:groupmode="layer"
     id="layer2"
     inkscape:label="novia"
     style="display:inline"
     transform="translate(-45.508336,-30.427093)"><path
       id="rect12"
       style="display:inline;fill:none;stroke:#000000;stroke-width:0.378749;stroke-miterlimit:2;stroke-opacity:1;paint-order:markers fill stroke"
       d="m 97.807055,45.574655 c 0,0 0.632384,0.291492 0.846844,0.595759 0.15633,0.221794 0.1965,0.537985 0.26833,0.822233 0.139597,0.552438 0.312487,1.702168 0.312487,1.702168 l 0.564067,2.801286 0.921287,4.088721 -1.821351,-4.097677 -0.494907,-2.339824 z"
       sodipodi:nodetypes="caacccccc" /><path
       id="rect12-7"
       style="display:inline;fill:none;stroke:#000000;stroke-width:0.412371;stroke-miterlimit:2;stroke-opacity:1;paint-order:markers fill stroke"
       d="m 93.367922,45.5822 c 0,0 -0.900395,0.332562 -1.224221,0.711392 -0.177969,0.208183 -0.246477,0.516795 -0.338023,0.791503 -0.177917,0.533906 -0.405921,1.651161 -0.405921,1.651161 l -0.728262,2.714782 -1.181434,3.957355 2.270027,-3.919433 0.637019,-2.266337 z"
       sodipodi:nodetypes="caacccccc" /><path
       id="rect14"
       style="fill:none;stroke:#000000;stroke-width:0.425642;stroke-miterlimit:2;stroke-opacity:1;paint-order:markers fill stroke"
       d="m 94.090786,53.698037 3.01462,-0.0665 c 0,0 0.778246,1.292361 0.998916,2.006011 0.20207,0.65353 0.19518,1.354184 0.28178,2.032738 0.108317,0.848576 0.297417,2.549088 0.297417,2.549088 l 0.0309,1.878754 1.733831,4.580314 1.98323,4.517895 c 0,0 1.00796,1.809953 0.55077,2.694273 -0.32972,0.637779 -0.83818,0.34208 -1.83538,0.451611 -0.98393,0.108096 -1.167657,0.609613 -1.811934,0.65994 -1.042594,0.08147 -2.029546,-0.634191 -3.074972,-0.59867 -1.208123,0.04104 -3.493024,0.931267 -3.493024,0.931267 0,0 -2.072279,-0.240743 -3.027205,-0.613163 -0.76774,-0.299418 -1.842765,-0.521957 -2.099235,-1.274921 -0.237531,-0.697361 0.844894,-2.046696 0.844894,-2.046696 l 2.332388,-5.650059 1.66372,-3.79573 0.111011,-2.595522 c 0,0 -0.05465,-1.285001 -0.02148,-1.926382 0.0344,-0.665421 -0.0187,-1.363676 0.228345,-1.986752 0.264338,-0.666711 1.291377,-1.747469 1.291377,-1.747469 z"
       sodipodi:nodetypes="ccaaccccssaacaaccccaacc" /><path
       id="path14"
       style="fill:none;fill-opacity:1;stroke:#000000;stroke-width:0.333632;stroke-miterlimit:2;stroke-opacity:1;paint-order:markers fill stroke"
       d="m 101.13178,57.253738 c -0.22656,0.519178 -0.60629,1.329754 -0.84817,1.233547 -0.24188,-0.0962 -0.2543,-1.062761 -0.0277,-1.58194 0.22655,-0.519186 0.60629,-0.862081 0.84816,-0.765868 0.24188,0.0962 0.25431,0.595065 0.0278,1.114261 z"
       sodipodi:nodetypes="sssss" /><path
       id="path14-2"
       style="fill:none;fill-opacity:1;stroke:#000000;stroke-width:0.333632;stroke-miterlimit:2;stroke-opacity:1;paint-order:markers fill stroke"
       d="m 89.102601,56.823944 c -0.22655,0.519179 -0.606283,1.329763 -0.848162,1.233556 -0.241876,-0.09621 -0.2543,-1.062764 -0.02775,-1.581948 0.22655,-0.519178 0.606285,-0.862073 0.848161,-0.765869 0.241876,0.0962 0.254302,0.595074 0.02775,1.114261 z"
       sodipodi:nodetypes="sssss" /><path
       id="path14-4"
       style="fill:none;fill-opacity:1;stroke:#000000;stroke-width:0.333632;stroke-miterlimit:2;stroke-opacity:1;paint-order:markers fill stroke"
       d="m 111.866,59.724522 c -0.17042,0.538398 -0.46238,1.381467 -0.71321,1.309101 -0.25082,-0.07235 -0.36553,-1.032773 -0.19512,-1.571162 0.17042,-0.538389 0.51191,-0.916177 0.76273,-0.843809 0.25083,0.07235 0.31601,0.567484 0.1456,1.10587 z"
       sodipodi:nodetypes="sssss" /><path
       id="rect15"
       style="fill:none;stroke:#000000;stroke-width:0.378561;stroke-miterlimit:2;stroke-opacity:1;paint-order:markers fill stroke"
       d="m 95.138548,44.689775 c 0,0 0.221275,0.109247 0.341941,0.114555 0.164445,0.0069 0.479063,-0.114555 0.479063,-0.114555 l 0.188549,0.506469 1.681644,0.417767 -0.4002,0.120889 -0.527255,1.522461 -1.28592,1.655322 -1.454839,-1.835331 -0.26394,-1.632766 -0.57548,0.137803 1.662171,-0.369773 z"
       sodipodi:nodetypes="caccccccccccc" /><path
       id="rect16"
       style="fill:none;stroke:#000000;stroke-width:0.443847;stroke-miterlimit:2;stroke-opacity:1;paint-order:markers fill stroke"
       d="m 93.45789,45.42535 0.708103,1.570153 c 0,0 0.635221,1.975818 1.485902,1.980989 0.700857,0.0043 1.245835,-1.6171 1.245835,-1.6171 l 0.725345,-1.606744 c 0,0 0.12279,1.694044 0.22787,2.536798 0.062,0.497008 0.333907,0.992457 0.237197,1.48439 -0.0573,0.291305 -0.337327,0.500286 -0.464767,0.770566 -0.15285,0.3242 -0.3551,1.011289 -0.3551,1.011289 l -0.193704,1.839263 -2.982477,-0.01635 -0.12069,-1.479288 c 0,0 -0.247526,-0.569136 -0.376327,-0.851647 -0.178813,-0.392201 -0.489633,-0.746933 -0.550361,-1.17073 -0.06577,-0.459001 0.166466,-0.913528 0.217466,-1.374241 0.11313,-1.021968 0.195708,-3.077335 0.195708,-3.077335 z"
       sodipodi:nodetypes="ccaccaaaccccaaac" /><path
       id="path18"
       style="fill:none;stroke:#000000;stroke-width:0.396318;stroke-miterlimit:2;stroke-opacity:1;paint-order:markers fill stroke"
       d="m 97.487545,42.117068 c 0,1.278137 -0.979539,2.327927 -1.965601,2.327927 -0.986062,0 -1.785423,-1.036129 -1.785423,-2.314274 0,-0.349029 0.162453,-0.336348 0.269194,-0.633119 0.08246,-0.229269 0.887171,-0.156144 1.007853,-0.378206 0.295136,-0.543066 0.753807,-0.877466 1.262566,-0.877466 0.546913,0 0.427186,0.25126 0.582722,0.624642 0.06556,0.157376 0.41964,0.215333 0.506359,0.480814 0.0785,0.240275 0.12233,0.49925 0.12233,0.769682 z"
       sodipodi:nodetypes="sssssssss" /><path
       id="path19"
       style="fill:none;stroke:#000000;stroke-width:0.443847;stroke-miterlimit:2;stroke-opacity:1;paint-order:markers fill stroke"
       d="m 97.914462,40.611448 c 0,0.545989 -0.199747,1.841817 -0.396527,1.914836 -0.11542,0.04284 0.12174,0.323911 0.0646,-0.0277 -0.0448,-0.27549 -0.369475,-1.185834 -0.523706,-1.25964 -0.254973,-0.122014 -0.391242,-0.999404 -0.774434,-0.999404 -0.583247,0 -1.080252,0.993113 -1.644421,1.170566 -0.237124,0.07458 -0.537484,0.19369 -0.741937,0.431299 -0.170468,0.198109 -0.206714,0.807189 -0.3439,0.700676 -0.256707,-0.199311 -0.18195,-1.500232 -0.18195,-1.914232 0,-0.247099 0.132693,-0.519378 0.1887,-0.747383 0.0563,-0.2292 0.313482,-0.365519 0.396158,-0.568318 0.17522,-0.429813 0.369284,-1.082554 0.643295,-1.508162 0.265502,-0.412396 0.606064,-0.604538 1.077268,-0.604538 0.574503,0 1.005576,0.308347 1.228885,0.839886 0.123917,0.294962 0.07709,0.760584 0.209792,1.037418 0.05465,0.11403 0.36478,0.330163 0.41733,0.450718 0.15632,0.358626 0.380847,0.661173 0.380847,1.084013 z"
       sodipodi:nodetypes="ssssssssssssssssss" /><ellipse
       style="fill:#000000;fill-opacity:1;stroke:#000000;stroke-width:0.443847;stroke-miterlimit:2;stroke-opacity:1;paint-order:markers fill stroke"
       id="path20"
       cx="94.117821"
       cy="39.373398"
       rx="0.35138372"
       ry="0.45002878" /><ellipse
       style="fill:#000000;fill-opacity:1;stroke:#000000;stroke-width:0.443847;stroke-miterlimit:2;stroke-opacity:1;paint-order:markers fill stroke"
       id="path21"
       cx="95.012131"
       cy="39.160656"
       rx="0.25711006"
       ry="0.43366411" /><ellipse
       style="fill:#000000;fill-opacity:1;stroke:#000000;stroke-width:0.443847;stroke-miterlimit:2;stroke-opacity:1;paint-order:markers fill stroke"
       id="path22"
       cx="95.706322"
       cy="39.144299"
       rx="0.19711773"
       ry="0.38457012" /><ellipse
       style="fill:#000000;fill-opacity:1;stroke:#000000;stroke-width:0.443847;stroke-miterlimit:2;stroke-opacity:1;paint-order:markers fill stroke"
       id="path23"
       cx="96.371819"
       cy="39.228973"
       rx="0.15426603"
       ry="0.42548177" /><ellipse
       style="fill:#000000;fill-opacity:1;stroke:#000000;stroke-width:0.443847;stroke-miterlimit:2;stroke-opacity:1;paint-order:markers fill stroke"
       id="path24"
       cx="97.100296"
       cy="39.406128"
       rx="0.28282106"
       ry="0.35184073" /><path
       id="rect4"
       style="fill:none;stroke:#000000;stroke-width:0.47388;stroke-miterlimit:2;stroke-opacity:1;paint-order:markers fill stroke"
       d="m 104.81337,56.825435 c 0,0 1.45894,0.549304 2.0827,0.234662 0.32002,-0.161426 0.53823,-0.93088 0.53823,-0.93088 0,0 0.15627,0.754573 0.46784,0.92281 0.50281,0.271493 1.72584,-0.149672 1.72584,-0.149672 l -0.14917,15.638657 -1.14484,-0.09302 -1.00309,-13.814073 -0.86971,13.994733 -1.29032,-0.146345 z"
       sodipodi:nodetypes="cacaccccccc" /><path
       id="rect5"
       style="fill:#000000;fill-opacity:1;stroke:#000000;stroke-width:0.47388;stroke-miterlimit:2;stroke-opacity:1;paint-order:markers fill stroke"
       d="m 108.39763,73.111486 1.4872,0.205895 0.73693,0.439506 c 0,0 1.06243,0.231796 1.04683,0.624322 -0.0108,0.270985 -0.75484,0.377487 -0.75484,0.377487 l -0.88189,-0.432168 -1.41856,-0.08259 z"
       sodipodi:nodetypes="cccacccc" /><path
       id="rect5-8"
       style="display:inline;fill:#000000;fill-opacity:1;stroke:#000000;stroke-width:0.47388;stroke-miterlimit:2;stroke-opacity:1;paint-order:markers fill stroke"
       d="m 106.39152,73.209319 -1.49855,0.107348 -0.76696,0.38985 c 0,0 -1.07667,0.161191 -1.0895,0.553805 -0.009,0.271043 0.72573,0.426361 0.72573,0.426361 l 0.91104,-0.372973 1.42116,0.01118 z"
       sodipodi:nodetypes="cccacccc" /><path
       id="rect6"
       style="fill:none;stroke:#000000;stroke-width:0.47388;stroke-miterlimit:2;stroke-opacity:1;paint-order:markers fill stroke"
       d="m 102.94228,44.925675 c 0.19036,-0.243969 0.80213,-0.496493 0.80213,-0.496493 l 2.0375,-0.944833 1.51452,3.653301 1.69097,-3.645266 1.81722,0.659398 c 0,0 1.01932,0.31318 1.30354,0.70525 0.21994,0.303398 0.11334,0.730046 0.17963,1.093544 0.0929,0.509328 0.30556,1.523293 0.30556,1.523293 l 0.34515,3.541586 c 0,0 0.14243,0.855071 0.12522,1.284916 -0.0156,0.389497 -0.20619,1.152653 -0.20619,1.152653 l -0.79564,4.447644 -0.66398,-0.02323 -0.007,-4.16639 c 0,0 0.0276,-0.596243 -0.001,-0.892407 -0.0233,-0.237167 -0.13817,-0.702336 -0.13817,-0.702336 l -0.70029,-3.559658 -0.40082,3.392996 -0.15237,4.450482 -1.81254,0.07708 -0.43996,-0.852957 -0.63747,0.03398 -0.45455,0.829169 -1.8363,-0.172765 -0.10455,-4.280929 -0.45451,-3.192985 -0.49309,3.016438 c 0,0 -0.0335,0.457417 -0.10987,0.672102 -0.0544,0.15272 -0.24315,0.424571 -0.24315,0.424571 l -1.69146,2.953403 -0.38014,-0.41916 0.79575,-3.500782 c 0,0 0.0707,-0.262982 0.0903,-0.397162 0.0263,-0.180299 0.0358,-0.545028 0.0358,-0.545028 l 0.2225,-3.389537 c 0,0 -0.0504,-0.864516 0.0162,-1.289733 0.0775,-0.494686 0.12877,-1.038959 0.44175,-1.440087 z"
       sodipodi:nodetypes="acccccaaccaccccaccccccccccccaccccaccaa" /><ellipse
       style="display:inline;fill:#000000;fill-opacity:1;stroke:#000000;stroke-width:0.420819;stroke-miterlimit:2;stroke-opacity:1;paint-order:markers fill stroke"
       id="path6-5"
       cx="107.27258"
       cy="49.83844"
       rx="0.29673618"
       ry="0.47204688" /><ellipse
       style="display:inline;fill:#000000;fill-opacity:1;stroke:#000000;stroke-width:0.420819;stroke-miterlimit:2;stroke-opacity:1;paint-order:markers fill stroke"
       id="path6-1"
       cx="107.37479"
       cy="51.37339"
       rx="0.29673618"
       ry="0.47204688" /><ellipse
       style="fill:#000000;fill-opacity:1;stroke:#000000;stroke-width:0.420819;stroke-miterlimit:2;stroke-opacity:1;paint-order:markers fill stroke"
       id="path6"
       cx="107.27359"
       cy="48.357544"
       rx="0.29673618"
       ry="0.47204688" /><path
       id="rect7"
       style="fill:none;stroke:#000000;stroke-width:0.47388;stroke-miterlimit:2;stroke-opacity:1;paint-order:markers fill stroke"
       d="m 106.93214,42.386204 c 0,0 0.31197,0.01067 0.46796,0.01591 0.1795,0.006 0.53849,0.01841 0.53849,0.01841 0,0 0.36974,0.378221 0.55462,0.567343 0.1506,0.154063 0.45182,0.462176 0.45182,0.462176 l -1.6175,3.877839 -1.43779,-3.877839 c 0,0 0.41324,-0.268393 0.58357,-0.440444 0.18272,-0.184589 0.45883,-0.62339 0.45883,-0.62339 z"
       sodipodi:nodetypes="cacacccac" /><path
       id="path7"
       style="fill:none;stroke:#000000;stroke-width:0.548219;stroke-miterlimit:2;stroke-opacity:1;paint-order:markers fill stroke"
       d="m 109.19455,39.915366 c 0,1.268737 -0.8198,2.297247 -1.83108,2.297247 -1.01127,0 -1.83108,-1.02851 -1.83108,-2.297247 0,-0.373513 0.17889,-1.240964 0.30496,-1.55272 0.16011,-0.395946 0.30796,-1.118916 0.79877,-1.217192 0.28704,-0.05748 0.3919,0.472665 0.72735,0.472665 0.28475,0 0.78356,-0.276874 1.08224,-0.08181 0.71587,0.467503 0.74884,1.467574 0.74884,2.379061 z"
       sodipodi:nodetypes="ssssasas" /><path
       id="path8"
       style="fill:none;stroke:#000000;stroke-width:0.47388;stroke-miterlimit:2;stroke-opacity:1;paint-order:markers fill stroke"
       d="m 109.4842,39.486403 c 0,0.973906 -0.7327,-2.239935 -1.62318,-1.883201 -0.29657,0.118807 -0.91016,-0.433208 -1.25239,-0.433208 -0.62182,0 -0.63402,2.658678 -0.97225,2.292637 -0.40684,-0.440286 -0.28581,-0.845914 -0.28581,-1.554816 0,-0.360596 -0.003,-0.889208 0.25891,-1.208351 0.24861,-0.303335 0.54109,-0.332229 0.73623,-0.537656 0.33873,-0.356595 0.21033,-0.501769 0.83804,-0.501769 0.51316,0 1.02586,0.147713 1.42148,0.400726 0.28546,0.182569 0.73999,0.627077 0.87838,1.216453 0.18175,0.774059 8.2e-4,1.748252 8.2e-4,2.209185 z"
       sodipodi:nodetypes="sssssssssss" /><path
       id="rect8"
       style="fill:#000000;fill-opacity:1;stroke:#000000;stroke-width:0.184459;stroke-miterlimit:2;stroke-opacity:1;paint-order:markers fill stroke"
       d="m 106.83644,43.310408 0.56229,-0.610284 0.54023,0.644185 -0.19846,1.000194 -0.69458,-0.01695 z"
       sodipodi:nodetypes="cccccc" /><path
       id="rect9"
       style="fill:#000000;fill-opacity:1;stroke:#000000;stroke-width:0.184459;stroke-miterlimit:2;stroke-opacity:1;paint-order:markers fill stroke"
       d="m 107.01285,44.344503 h 0.71663 l 0.34178,2.576759 -0.76074,1.203618 -0.62843,-1.18667 z"
       sodipodi:nodetypes="cccccc" /></g></svg>
