<?xml version="1.0" encoding="UTF-8" standalone="no"?>
<!-- Created with Inkscape (http://www.inkscape.org/) -->

<svg
   width="177.38327mm"
   height="125.37122mm"
   viewBox="0 0 177.38327 125.37122"
   version="1.1"
   id="svg1"
   inkscape:version="1.4 (86a8ad7, 2024-10-11)"
   sodipodi:docname="sesion de fotos.svg"
   xmlns:inkscape="http://www.inkscape.org/namespaces/inkscape"
   xmlns:sodipodi="http://sodipodi.sourceforge.net/DTD/sodipodi-0.dtd"
   xmlns="http://www.w3.org/2000/svg"
   xmlns:svg="http://www.w3.org/2000/svg">
  <sodipodi:namedview
     id="namedview1"
     pagecolor="#ffffff"
     bordercolor="#000000"
     borderopacity="0.25"
     inkscape:showpageshadow="2"
     inkscape:pageopacity="0.0"
     inkscape:pagecheckerboard="0"
     inkscape:deskcolor="#d1d1d1"
     inkscape:document-units="mm"
     inkscape:zoom="0.51495604"
     inkscape:cx="668.01819"
     inkscape:cy="509.75225"
     inkscape:window-width="1366"
     inkscape:window-height="705"
     inkscape:window-x="-8"
     inkscape:window-y="-8"
     inkscape:window-maximized="1"
     inkscape:current-layer="layer2" />
  <defs
     id="defs1" />
  <g
     inkscape:label="Capa 1"
     inkscape:groupmode="layer"
     id="layer1"
     style="display:inline"
     transform="translate(-27.499404,-33.758229)">
    <path
       id="rect1"
       style="display:inline;fill:none;stroke:#000000;stroke-width:2.03961;stroke-miterlimit:2;paint-order:markers fill stroke"
       d="m 30.003332,49.709661 h 36.241449 l 10.482027,-7.530959 c 0,0 3.419999,-2.457136 5.129998,-3.685707 1.073813,-0.771502 1.961171,-1.914535 3.221459,-2.314507 6.249942,-1.983517 13.411555,-1.789154 19.670735,0.165017 1.69733,0.52992 2.94126,1.998758 4.41212,2.998136 1.20835,0.821023 3.62489,2.463068 3.62489,2.463068 l 11.63344,7.904952 h 35.34802 c 0.82215,0 1.48416,0.555588 1.48416,1.245719 v 73.67497 c 0,0.69003 -0.66201,1.24578 -1.48416,1.24578 H 30.003332 c -0.822204,0 -1.484123,-0.55575 -1.484123,-1.24578 V 50.95538 c 0,-0.690131 0.661919,-1.245719 1.484123,-1.245719 z"
       sodipodi:nodetypes="sccaaaaccssssssss" />
    <rect
       style="display:inline;fill:#000000;fill-opacity:1;stroke:#000000;stroke-width:2.23117;stroke-miterlimit:2;paint-order:markers fill stroke"
       id="rect2"
       width="19.042097"
       height="11.882891"
       x="84.155777"
       y="42.864491" />
    <rect
       style="display:inline;fill:none;fill-opacity:1;stroke:#000000;stroke-width:2.23117;stroke-miterlimit:2;paint-order:markers fill stroke"
       id="rect3"
       width="14.537516"
       height="7.4024563"
       x="135.94627"
       y="57.423" />
    <path
       id="rect4"
       style="display:inline;fill:none;stroke:#000000;stroke-width:2.23117;stroke-miterlimit:2;paint-order:markers fill stroke"
       d="m 28.655674,67.942268 c 0,0 5.46022,-0.0245 8.190148,0 3.617799,0.0325 8.045772,-1.97784 10.851953,0.1948 1.194324,0.92468 1.023771,4.28563 1.023771,4.28563 v 38.960512 c 0,0 -0.108532,2.46369 -1.023771,3.11684 -2.839634,2.02651 -7.097642,0.16234 -10.6472,0.19481 -2.79817,0.0256 -8.394901,0 -8.394901,0 z"
       sodipodi:nodetypes="caaccaacc" />
    <path
       style="display:inline;fill:none;fill-opacity:1;stroke:#000000;stroke-width:2.11461;stroke-miterlimit:2;paint-order:markers fill stroke"
       d="m 148.72524,67.982878 -10.82472,0.0115"
       id="path5" />
    <path
       style="display:inline;fill:none;fill-opacity:1;stroke:#000000;stroke-width:4.68924;stroke-miterlimit:2;paint-order:markers fill stroke"
       d="m 35.125407,76.902048 0.194845,29.455662"
       id="path5-8" />
    <ellipse
       style="display:inline;fill:none;fill-opacity:1;stroke:#000000;stroke-width:2.41992;stroke-miterlimit:2;paint-order:markers fill stroke"
       id="path6"
       cx="94.839478"
       cy="88.057343"
       rx="32.086876"
       ry="27.397291" />
    <ellipse
       style="display:inline;fill:none;fill-opacity:1;stroke:#000000;stroke-width:2.75911;stroke-miterlimit:2;paint-order:markers fill stroke"
       id="path7"
       cx="95.289162"
       cy="87.868942"
       rx="22.758551"
       ry="20.835835" />
    <path
       id="rect7"
       style="display:inline;fill:none;stroke:#000000;stroke-width:1.44249;stroke-miterlimit:2;paint-order:markers fill stroke"
       d="m 37.614755,45.39805 c 0.449392,-0.312795 0.971227,-0.585014 1.546709,-0.816654 3.057415,-1.230657 7.629068,-1.315987 10.896465,-0.25599 0.858442,0.278491 1.62685,0.63604 2.254115,1.072644 1.228278,0.854932 0,3.627169 0,3.627169 H 37.614755 c 0,0 -1.228277,-2.772237 0,-3.627169 z"
       sodipodi:nodetypes="ssssccs" />
    <path
       d="m 87.446142,81.144488 c -1.81538,0.20345 -3.5633,0.87224 -4.91664,1.9939 -3.09337,2.56379 -2.91929,6.49386 0.39046,8.81164 l 0.35396,0.24798 c 0.33669,-0.38482 0.73637,-0.75071 1.21691,-1.08312 l 10.8769,-7.52375 -1.2803,-0.89672 c -1.86173,-1.30375 -4.30725,-1.81152 -6.64129,-1.54993 z"
       style="display:inline;fill:#000000;fill-opacity:1;stroke:#000000;stroke-width:1.60972;stroke-miterlimit:2;paint-order:markers fill stroke"
       id="path11" />
    <path
       d="m 95.367732,83.591138 9.639508,6.75018 c 0.60497,0.42365 1.10376,0.90174 1.49842,1.41493 l 1.59377,-1.10234 c 3.1848,-2.20296 3.2119,-5.7607 0.0607,-7.97677 -3.15125,-2.21607 -8.252128,-2.22659 -11.436928,-0.0237 z"
       style="display:inline;fill:#000000;fill-opacity:1;stroke:#000000;stroke-width:1.59415;stroke-miterlimit:2;paint-order:markers fill stroke"
       id="path13" />
    <path
       d="m 95.367732,83.591138 -10.8769,7.52375 c -0.48054,0.33241 -0.88022,0.6983 -1.21691,1.08312 l 10.56581,7.39891 c 0.16913,0.11843 0.34422,0.22867 0.52246,0.33399 0.53317,-0.22697 1.04101,-0.495 1.50484,-0.81583 l 10.638628,-7.35883 c -0.39466,-0.51319 -0.89345,-0.99128 -1.49842,-1.41493 z"
       style="display:inline;fill:#000000;fill-opacity:1;stroke:#000000;stroke-width:1.59415;stroke-miterlimit:2;paint-order:markers fill stroke"
       id="path12" />
  </g>
  <g
     inkscape:groupmode="layer"
     id="layer2"
     inkscape:label="Capa 2"
     style="display:inline"
     transform="translate(-27.499404,-33.758229)">
    <g
       id="g21"
       transform="matrix(1.5582096,-0.57629716,0.3468816,0.93790893,-233.76081,177.98425)"
       style="stroke-width:0.775831">
      <rect
         style="display:inline;fill:#ffffff;fill-opacity:1;stroke:#000000;stroke-width:1.08261;stroke-miterlimit:2;stroke-dasharray:none;paint-order:markers fill stroke"
         id="rect5"
         width="36.513088"
         height="49.252285"
         x="205.17912"
         y="56.420795"
         rx="0.62932742"
         ry="1.5195484" />
      <path
         d="m 221.64603,64.235396 c -0.4486,0.0852 -0.88054,0.36529 -1.21497,0.835047 -0.76441,1.073694 -0.7214,2.719595 0.0965,3.690269 l 0.0875,0.10389 c 0.0832,-0.16116 0.18197,-0.31438 0.30072,-0.45361 l 2.68783,-3.150912 -0.31638,-0.375547 c -0.46006,-0.545997 -1.06438,-0.758647 -1.64116,-0.649097 z"
         style="display:inline;fill:#000000;fill-opacity:1;stroke:#000000;stroke-width:0.401763;stroke-miterlimit:2;paint-order:markers fill stroke"
         id="path14" />
      <path
         d="m 223.60357,65.26004 2.38207,2.826955 c 0.14949,0.17742 0.27275,0.377657 0.37027,0.592577 l 0.39385,-0.461657 c 0.78701,-0.922597 0.79371,-2.412558 0.015,-3.340652 -0.77872,-0.928074 -2.03921,-0.932484 -2.82623,-0.009 z"
         style="display:inline;fill:#000000;fill-opacity:1;stroke:#000000;stroke-width:0.397876;stroke-miterlimit:2;paint-order:markers fill stroke"
         id="path15" />
      <path
         d="m 217.40065,72.123081 a 4.1501646,5.5837684 0 0 0 -4.15025,5.5838 4.1501646,5.5837684 0 0 0 3.82817,5.526717 11.015829,12.651168 0 0 1 0.93677,-0.094 11.015829,12.651168 0 0 1 0.19811,0.007 4.1501646,5.5837684 0 0 0 3.33729,-5.43976 4.1501646,5.5837684 0 0 0 -4.15009,-5.58382 z"
         style="display:inline;fill:none;stroke:#000000;stroke-width:0.720357;stroke-miterlimit:2;paint-order:markers fill stroke"
         id="path16" />
      <path
         d="m 223.60357,65.26004 -2.68783,3.150922 c -0.11875,0.13922 -0.21752,0.29245 -0.30072,0.45361 l 2.61097,3.098632 c 0.0418,0.0496 0.085,0.0958 0.1291,0.139877 0.13176,-0.0951 0.25725,-0.207297 0.37187,-0.341677 l 2.62895,-3.081832 c -0.0975,-0.21492 -0.22078,-0.415157 -0.37027,-0.592577 z"
         style="display:inline;fill:#000000;fill-opacity:1;stroke:#000000;stroke-width:0.397876;stroke-miterlimit:2;paint-order:markers fill stroke"
         id="path17" />
      <path
         d="m 217.50297,83.471408 a 2.8033391,5.0098765 0 0 1 -0.54903,0.12924 2.8033391,5.0098765 0 0 1 -0.21756,-0.0513 7.4409354,11.350898 0 0 0 -6.80822,11.266324 7.4409354,11.350898 0 0 0 0.64512,4.524436 H 224.165 a 7.4409354,11.350898 0 0 0 0.64511,-4.524436 7.4409354,11.350898 0 0 0 -7.30714,-11.344334 z"
         style="display:inline;stroke:#000000;stroke-width:0.533806;stroke-miterlimit:2;paint-order:markers fill stroke"
         id="path18" />
      <path
         d="m 236.56008,96.518363 a 6.7031548,13.985291 0 0 0 -6.5771,-11.312154 6.7031548,13.985291 0 0 0 -6.59985,11.544804 c 0.28715,0.883984 0.7049,1.586691 1.30776,2.112738 h 10.38879 c 0.67157,-0.522787 1.16018,-1.272364 1.4804,-2.345388 z"
         style="display:inline;fill:none;stroke:#000000;stroke-width:0.672504;stroke-miterlimit:2;paint-order:markers fill stroke"
         id="path19" />
      <path
         d="m 229.91768,73.804772 c -0.36666,0.0189 -0.72875,0.0748 -1.07168,0.15415 -1.30811,0.302627 -2.66647,1.227824 -3.50173,2.709785 -0.57169,1.014334 -1.03215,2.185908 -1.39719,3.437879 -0.86694,2.973275 -1.19531,6.400424 -1.19531,9.254109 0,3.184702 0.0629,5.640237 0.63136,7.390318 a 6.7031548,13.985291 0 0 1 6.59985,-11.544804 6.7031548,13.985291 0 0 1 6.5771,11.312154 c 0.31964,-1.071114 0.47228,-2.463535 0.47228,-4.274016 0,-4.090766 -0.5082,-9.634873 -2.15468,-13.795762 -0.52149,-1.317871 -1.15715,-2.496945 -1.92706,-3.447189 -0.79138,-0.976754 -1.93292,-1.253304 -3.03294,-1.196624 z m -0.20759,1.727181 a 3.5019282,4.7843619 0 0 1 3.50186,4.784343 3.5019282,4.7843619 0 0 1 -3.50186,4.784343 3.5019282,4.7843619 0 0 1 -3.50199,-4.784343 3.5019282,4.7843619 0 0 1 3.50199,-4.784343 z"
         style="display:inline;fill:none;stroke:#000000;stroke-width:0.672504;stroke-miterlimit:2;paint-order:markers fill stroke"
         id="path20" />
      <path
         d="m 229.71009,75.531953 a 3.5019282,4.7843619 0 0 0 -3.50199,4.784343 3.5019282,4.7843619 0 0 0 3.50199,4.784343 3.5019282,4.7843619 0 0 0 3.50186,-4.784343 3.5019282,4.7843619 0 0 0 -3.50186,-4.784343 z"
         style="display:inline;fill:none;stroke:#000000;stroke-width:0.672504;stroke-miterlimit:2;paint-order:markers fill stroke"
         id="path21" />
      <g
         id="g2"
         transform="matrix(0.56454097,0.34688161,-0.20879306,0.93790893,138.30008,-55.485658)"
         style="display:inline">
        <rect
           style="display:inline;fill:#ffffff;fill-opacity:1;stroke:#000000;stroke-width:1.39542;stroke-miterlimit:2;stroke-dasharray:none;paint-order:markers fill stroke"
           id="rect23-8"
           width="36.513088"
           height="49.252285"
           x="205.17912"
           y="56.420795"
           rx="0.62932742"
           ry="1.5195484" />
        <path
           d="m 221.64603,64.235396 c -0.4486,0.0852 -0.88054,0.36529 -1.21497,0.835047 -0.76441,1.073694 -0.7214,2.719595 0.0965,3.690269 l 0.0875,0.10389 c 0.0832,-0.16116 0.18197,-0.31438 0.30072,-0.45361 l 2.68783,-3.150912 -0.31638,-0.375547 c -0.46006,-0.545997 -1.06438,-0.758647 -1.64116,-0.649097 z"
           style="display:inline;fill:#000000;fill-opacity:1;stroke:#000000;stroke-width:0.517848;stroke-miterlimit:2;paint-order:markers fill stroke"
           id="path11-5-3" />
        <path
           d="m 223.60357,65.26004 2.38207,2.826955 c 0.14949,0.17742 0.27275,0.377657 0.37027,0.592577 l 0.39385,-0.461657 c 0.78701,-0.922597 0.79371,-2.412558 0.015,-3.340652 -0.77872,-0.928074 -2.03921,-0.932484 -2.82623,-0.009 z"
           style="display:inline;fill:#000000;fill-opacity:1;stroke:#000000;stroke-width:0.512838;stroke-miterlimit:2;paint-order:markers fill stroke"
           id="path13-4-4" />
        <path
           d="m 217.40065,72.123081 a 4.1501646,5.5837684 0 0 0 -4.15025,5.5838 4.1501646,5.5837684 0 0 0 3.82817,5.526717 11.015829,12.651168 0 0 1 0.93677,-0.094 11.015829,12.651168 0 0 1 0.19811,0.007 4.1501646,5.5837684 0 0 0 3.33729,-5.43976 4.1501646,5.5837684 0 0 0 -4.15009,-5.58382 z"
           style="display:inline;fill:none;stroke:#000000;stroke-width:0.928497;stroke-miterlimit:2;paint-order:markers fill stroke"
           id="path17-3" />
        <path
           d="m 223.60357,65.26004 -2.68783,3.150922 c -0.11875,0.13922 -0.21752,0.29245 -0.30072,0.45361 l 2.61097,3.098632 c 0.0418,0.0496 0.085,0.0958 0.1291,0.139877 0.13176,-0.0951 0.25725,-0.207297 0.37187,-0.341677 l 2.62895,-3.081832 c -0.0975,-0.21492 -0.22078,-0.415157 -0.37027,-0.592577 z"
           style="display:inline;fill:#000000;fill-opacity:1;stroke:#000000;stroke-width:0.512838;stroke-miterlimit:2;paint-order:markers fill stroke"
           id="path12-3-1" />
        <path
           d="m 217.50297,83.471408 a 2.8033391,5.0098765 0 0 1 -0.54903,0.12924 2.8033391,5.0098765 0 0 1 -0.21756,-0.0513 7.4409354,11.350898 0 0 0 -6.80822,11.266324 7.4409354,11.350898 0 0 0 0.64512,4.524436 H 224.165 a 7.4409354,11.350898 0 0 0 0.64511,-4.524436 7.4409354,11.350898 0 0 0 -7.30714,-11.344334 z"
           style="display:inline;stroke:#000000;stroke-width:0.688044;stroke-miterlimit:2;paint-order:markers fill stroke"
           id="path16-1" />
        <path
           d="m 236.56008,96.518363 a 6.7031548,13.985291 0 0 0 -6.5771,-11.312154 6.7031548,13.985291 0 0 0 -6.59985,11.544804 c 0.28715,0.883984 0.7049,1.586691 1.30776,2.112738 h 10.38879 c 0.67157,-0.522787 1.16018,-1.272364 1.4804,-2.345388 z"
           style="display:inline;fill:none;stroke:#000000;stroke-width:0.866817;stroke-miterlimit:2;paint-order:markers fill stroke"
           id="path23-7" />
        <path
           d="m 229.91768,73.804772 c -0.36666,0.0189 -0.72875,0.0748 -1.07168,0.15415 -1.30811,0.302627 -2.66647,1.227824 -3.50173,2.709785 -0.57169,1.014334 -1.03215,2.185908 -1.39719,3.437879 -0.86694,2.973275 -1.19531,6.400424 -1.19531,9.254109 0,3.184702 0.0629,5.640237 0.63136,7.390318 a 6.7031548,13.985291 0 0 1 6.59985,-11.544804 6.7031548,13.985291 0 0 1 6.5771,11.312154 c 0.31964,-1.071114 0.47228,-2.463535 0.47228,-4.274016 0,-4.090766 -0.5082,-9.634873 -2.15468,-13.795762 -0.52149,-1.317871 -1.15715,-2.496945 -1.92706,-3.447189 -0.79138,-0.976754 -1.93292,-1.253304 -3.03294,-1.196624 z m -0.20759,1.727181 a 3.5019282,4.7843619 0 0 1 3.50186,4.784343 3.5019282,4.7843619 0 0 1 -3.50186,4.784343 3.5019282,4.7843619 0 0 1 -3.50199,-4.784343 3.5019282,4.7843619 0 0 1 3.50199,-4.784343 z"
           style="display:inline;fill:none;stroke:#000000;stroke-width:0.866817;stroke-miterlimit:2;paint-order:markers fill stroke"
           id="path22-4" />
        <path
           d="m 229.71009,75.531953 a 3.5019282,4.7843619 0 0 0 -3.50199,4.784343 3.5019282,4.7843619 0 0 0 3.50199,4.784343 3.5019282,4.7843619 0 0 0 3.50186,-4.784343 3.5019282,4.7843619 0 0 0 -3.50186,-4.784343 z"
           style="display:inline;fill:none;stroke:#000000;stroke-width:0.866817;stroke-miterlimit:2;paint-order:markers fill stroke"
           id="path21-2" />
      </g>
    </g>
  </g>
</svg>
